<svg width="194" height="195" viewBox="0 0 194 195" fill="none" xmlns="http://www.w3.org/2000/svg">
<path fill-rule="evenodd" clip-rule="evenodd" d="M93.2961 0.0744324C146.018 -1.96744 189.99 38.262 193.978 89.5329C194.296 93.6256 191.092 97.1365 186.986 97.1365C183.31 97.1365 180.286 94.2945 180.001 90.6304C176.557 46.3593 138.275 11.7088 92.6152 14.1412C52.1594 16.2942 16.2942 52.1595 14.1401 92.6152C11.7087 138.275 46.3583 176.557 90.6294 180.001C94.2935 180.286 97.1365 183.31 97.1365 186.987C97.1365 191.183 93.7157 194.304 89.5318 193.978C38.262 189.99 -1.96745 146.02 0.0744171 93.2991C2.02615 42.8855 42.8824 2.02817 93.2961 0.0744324Z" fill="#FFE5D3"/>
<path fill-rule="evenodd" clip-rule="evenodd" d="M100.704 193.927C47.982 195.969 4.0103 155.74 0.0217116 104.469C-0.295734 100.376 2.90776 96.8651 7.01351 96.8651C10.6897 96.8651 13.7139 99.7071 13.9993 103.371C17.4431 147.642 55.7248 182.293 101.385 179.86C141.841 177.707 177.706 141.842 179.86 101.386C182.291 55.7264 147.642 17.4448 103.371 14.0009C99.7065 13.7155 96.8635 10.6913 96.8635 7.01514C96.8635 2.81826 100.284 -0.302116 104.468 0.0233407C155.738 4.01193 195.967 47.9816 193.926 100.702C191.974 151.116 151.118 191.973 100.704 193.927Z" fill="#FF3A29"/>
<path fill-rule="evenodd" clip-rule="evenodd" d="M97 140C120.748 140 140 120.748 140 97C140 73.2518 120.748 54 97 54C73.2518 54 54 73.2518 54 97C54 120.748 73.2518 140 97 140Z" fill="#FF3A29"/>
<path d="M81.4748 105.264C80.3455 105.264 79.3921 105.051 78.6148 104.626C77.8375 104.201 77.2068 103.636 76.7228 102.932C76.2535 102.228 75.9161 101.436 75.7108 100.556C75.5055 99.676 75.4028 98.774 75.4028 97.85C75.4028 96.1487 75.6375 94.66 76.1068 93.384C76.5908 92.108 77.2801 91.118 78.1748 90.414C79.0695 89.6953 80.1548 89.336 81.4308 89.336C82.4428 89.336 83.3081 89.534 84.0268 89.93C84.7455 90.326 85.3028 90.854 85.6988 91.514C86.1095 92.174 86.3588 92.8927 86.4468 93.67H84.2688C84.1368 92.9073 83.8215 92.3207 83.3228 91.91C82.8241 91.4993 82.1861 91.294 81.4088 91.294C80.3381 91.294 79.4508 91.8 78.7468 92.812C78.0575 93.8093 77.6908 95.3493 77.6468 97.432C77.9988 96.7867 78.5415 96.2367 79.2748 95.782C80.0228 95.3273 80.8808 95.1 81.8488 95.1C82.7141 95.1 83.5208 95.3053 84.2688 95.716C85.0315 96.1267 85.6475 96.706 86.1168 97.454C86.6008 98.1873 86.8428 99.06 86.8428 100.072C86.8428 100.967 86.6228 101.81 86.1828 102.602C85.7428 103.394 85.1195 104.039 84.3128 104.538C83.5208 105.022 82.5748 105.264 81.4748 105.264ZM81.3428 103.24C81.9588 103.24 82.5088 103.108 82.9928 102.844C83.4768 102.58 83.8581 102.221 84.1368 101.766C84.4155 101.297 84.5548 100.769 84.5548 100.182C84.5548 99.2433 84.2468 98.4953 83.6308 97.938C83.0295 97.3807 82.2595 97.102 81.3208 97.102C80.7048 97.102 80.1475 97.2413 79.6488 97.52C79.1648 97.7987 78.7835 98.1727 78.5048 98.642C78.2261 99.0967 78.0868 99.6027 78.0868 100.16C78.0868 100.761 78.2261 101.297 78.5048 101.766C78.7981 102.221 79.1868 102.58 79.6708 102.844C80.1695 103.108 80.7268 103.24 81.3428 103.24ZM96.7392 105V101.92H89.0172V100.072L96.3652 89.6H99.0492V99.896H101.205V101.92H99.0492V105H96.7392ZM91.5472 99.896H96.8712V92.174L91.5472 99.896ZM106.162 96.948C105.473 96.948 104.849 96.794 104.292 96.486C103.749 96.178 103.317 95.7453 102.994 95.188C102.671 94.616 102.51 93.934 102.51 93.142C102.51 92.3647 102.671 91.6973 102.994 91.14C103.317 90.568 103.757 90.128 104.314 89.82C104.871 89.512 105.495 89.358 106.184 89.358C106.859 89.358 107.467 89.512 108.01 89.82C108.567 90.128 109.007 90.568 109.33 91.14C109.653 91.6973 109.814 92.3647 109.814 93.142C109.814 93.934 109.653 94.616 109.33 95.188C109.007 95.7453 108.567 96.178 108.01 96.486C107.467 96.794 106.851 96.948 106.162 96.948ZM105.062 105L113.884 89.6H116.172L107.372 105H105.062ZM106.162 95.276C106.631 95.276 107.035 95.1 107.372 94.748C107.724 94.3813 107.9 93.846 107.9 93.142C107.9 92.438 107.731 91.91 107.394 91.558C107.057 91.1913 106.646 91.008 106.162 91.008C105.693 91.008 105.282 91.1913 104.93 91.558C104.578 91.91 104.402 92.438 104.402 93.142C104.402 93.846 104.571 94.3813 104.908 94.748C105.26 95.1 105.678 95.276 106.162 95.276ZM115.204 105.264C114.515 105.264 113.891 105.11 113.334 104.802C112.791 104.494 112.359 104.061 112.036 103.504C111.713 102.932 111.552 102.25 111.552 101.458C111.552 100.681 111.713 100.006 112.036 99.434C112.359 98.862 112.799 98.422 113.356 98.114C113.913 97.806 114.537 97.652 115.226 97.652C115.901 97.652 116.509 97.806 117.052 98.114C117.609 98.422 118.049 98.862 118.372 99.434C118.695 100.006 118.856 100.681 118.856 101.458C118.856 102.25 118.695 102.932 118.372 103.504C118.049 104.061 117.609 104.494 117.052 104.802C116.509 105.11 115.893 105.264 115.204 105.264ZM115.204 103.57C115.673 103.57 116.077 103.394 116.414 103.042C116.766 102.69 116.942 102.162 116.942 101.458C116.942 100.754 116.773 100.226 116.436 99.874C116.099 99.5073 115.688 99.324 115.204 99.324C114.735 99.324 114.324 99.5073 113.972 99.874C113.62 100.226 113.444 100.754 113.444 101.458C113.444 102.162 113.613 102.69 113.95 103.042C114.302 103.394 114.72 103.57 115.204 103.57Z" fill="white"/>
</svg>