<?xml version="1.0" encoding="utf-8"?>
<!-- Generator: Adobe Illustrator 24.2.3, SVG Export Plug-In . SVG Version: 6.00 Build 0)  -->
<svg version="1.1" id="Layer_1" xmlns="http://www.w3.org/2000/svg" xmlns:xlink="http://www.w3.org/1999/xlink" x="0px" y="0px"
	 viewBox="0 0 1184 792" style="enable-background:new 0 0 1184 792;" xml:space="preserve">
<style type="text/css">
	.st0{fill:#FFFFFF;}
	.st1{fill:none;stroke:#FFFFFF;stroke-linecap:round;stroke-linejoin:round;}
	.st2{fill:none;stroke:#FFFFFF;stroke-miterlimit:10;}
	.st3{fill:none;stroke:#FFFFFF;stroke-width:0.5;stroke-miterlimit:10;}
	.st4{fill:none;stroke:#FFFFFF;stroke-width:0.5;stroke-linecap:round;stroke-linejoin:round;}
	.st5{stroke:#FFFFFF;stroke-miterlimit:10;}
</style>
<g>
	<rect width="1184" height="792"/>
</g>
<g>
	<polyline class="st1" points="449.23,573.91 456.6,543.01 462.8,515.76 463.32,494.86 463.96,474.05 464.27,453.42 469.16,431.14 
		474.46,409.83 483.48,389.59 486.34,370.45 487.64,350.78 494.03,333.12 502.48,318.06 508.17,302.26 511.23,283.98 510.29,259.06 
		516.84,243.84 517,243.66 519,241.43 525.65,234.01 531.72,219.65 536.52,201.64 544.31,197.56 552.97,193.81 561.87,187.58 
		564.79,166.24 568.6,149.13 572.53,141.29 573.35,139.65 578.08,132.18 	"/>
	<polyline class="st1" points="414.72,582.2 421.6,553.27 425.21,529.11 425.08,508.65 418.88,491.72 415.81,471.96 420.56,448.78 
		425.29,426.39 434.8,404.24 449.39,384.01 457.61,365.64 458.93,346.37 464.4,328.19 474.96,313.39 481.79,297.48 483.24,276.84 
		487.86,258.12 	"/>
	<polyline class="st1" points="841.04,566.42 837.77,572.21 837.41,573.13 835.87,574.99 831.97,580.5 827.05,591.24 	"/>
	<polyline class="st1" points="852.13,533.48 847.64,541.98 844.89,547.2 843.26,549.93 839.13,558.08 829.78,566.25 804.96,562.53 
		790.16,566.83 775.07,571.33 761.78,578.56 746.28,584.41 727.55,586.64 707.53,586.83 686.66,584.66 665.11,578.68 646.69,579.97 
			"/>
	<polyline class="st1" points="495.95,553.2 499.8,525.71 503.89,499.76 506.31,477.09 509.36,454.85 511.17,434.23 511.32,414.39 
		511.56,393.96 513.09,373.05 517.43,353.11 524.47,336.11 530.59,320.63 534.51,304.27 536.49,285.26 535.59,259.47 535.71,232.39 
		544.46,226.97 547.49,224.75 554.35,219.75 565.97,214.05 569.71,202.96 571.85,182.5 574.23,162.46 576.9,143.73 580.27,132.36 
		583.43,124.45 583.72,123.75 	"/>
	<polyline class="st1" points="905.57,407.67 905.26,408.41 897.26,427.44 895.02,432.79 891,439.6 	"/>
	<polyline class="st1" points="309.67,518.42 321.28,493.82 322.28,474.5 320.09,465.26 	"/>
	<polyline class="st1" points="848.49,438.95 822.05,442.01 804.88,446.78 796.83,454.5 764.57,454.14 737.6,454.41 713.38,454.82 
		690.65,455.04 670.59,456.48 651.18,458.52 632.07,462.36 611.31,467.52 587.62,472.73 564.53,469.3 545.05,463.16 526.95,458.53 
		509.36,454.85 487.76,454.02 464.27,453.42 436.92,453.47 420.56,448.78 411.3,442.28 394.2,438.2 378.54,433.65 352.92,430.55 
		337.16,425.37 327.4,419.32 316.21,413.4 292.75,408.07 	"/>
	<polyline class="st1" points="853.32,364.42 827.83,370.32 805.79,375.28 788.21,379.41 773.45,383 765.1,386.13 748.44,389.31 
		724.22,392.14 697.74,394.32 673.44,395.92 652.35,397.2 632.43,398.3 611.05,399 588.34,399.23 566.89,398.4 547.21,397.22 
		528.47,395.76 511.56,393.96 497.55,391.87 483.48,389.59 467.34,387.01 449.39,384.01 429.19,380.45 409.3,376.42 392.21,372.12 
		376.7,367.54 364.77,362.96 349.57,357.6 325.69,350.5 305.58,343.25 294.6,336.91 290.91,331.52 290.68,323.71 288.69,321.08 
		288.69,319.03 288.69,316.86 288.68,314.62 288.67,306.52 288.41,305.38 284.39,287.72 287.94,283.23 298.54,276.22 302.98,272.59 
		308.2,269.1 329.78,258.23 341.94,243.43 342.78,241.91 345.19,237.54 351.03,226.92 354.5,205.77 353.9,200.95 356.27,181.28 
		360.39,159.38 	"/>
	<polyline class="st1" points="761.89,157.24 768.78,180.69 769.26,182.33 777.98,203.85 788.99,222.25 804.85,236.96 	"/>
	<polyline class="st1" points="907.72,353.33 883.04,361.26 865.42,367.73 852.03,373.04 	"/>
	<polyline class="st1" points="399.04,604.39 374.47,612.23 363.94,606.06 363.24,605.05 354.05,591.82 	"/>
	<polyline class="st1" points="669,150.55 673.5,175.83 680.84,192.19 687.74,210.51 692.66,232.96 697.03,255.8 706.09,273.03 
		713.86,293.63 714.61,320.13 718.42,343.95 725.58,367.28 724.22,392.14 717.27,414.35 713.41,434.45 713.38,454.82 715.66,476.56 
		720.12,500.96 722.44,524.57 717.64,540.13 709.81,549.91 708.14,567.39 707.53,586.83 710.24,613.6 706.87,629.03 701.21,638.76 
		698.55,655.57 695.24,671.06 691.7,686.39 	"/>
	<polyline class="st1" points="906.7,311.41 906.83,326.5 906.91,334.62 907.31,336.83 908.37,338.32 913.57,351.45 915.26,355.71 
		907.04,381.95 	"/>
	<polyline class="st1" points="685.95,648.51 663.61,636.32 643.5,626.17 625.75,623.47 608.46,621.92 591.24,624.93 572.93,633.58 
		553.98,638.72 535.68,638.29 530.55,634.3 531,610.43 532.15,585.96 530.36,570.6 524.31,564.66 517.47,557.43 521.31,528.11 
		523.8,503.04 524.82,481.1 526.95,458.53 528.35,437.28 528.14,416.94 528.47,395.76 529.05,373.96 532.65,353.1 539.64,336.36 
		544.41,320.28 547.74,303.76 549.21,284.12 548.43,257.6 547.55,226.87 554.35,219.75 558.92,207.18 561.87,187.58 571.85,182.5 
		582.78,180.11 594.11,177.84 605.78,173.51 617.88,169 630.25,165.24 643.05,160.06 656.76,152.06 	"/>
	<polyline class="st1" points="902.51,332.75 878.98,341.53 860,348.76 850.82,352.99 	"/>
	<polyline class="st1" points="834.58,247.07 836.02,272.12 840.89,294.11 841.54,316.67 841.72,317.85 840.87,318.86 
		818.71,325.64 793.86,332.66 773.28,337.89 758.59,340.79 746.55,342.22 733.21,343.29 718.42,343.95 701.12,344.55 673.79,349.36 
		650.85,352.2 629.62,354.17 609.79,354.57 590.01,354.86 570.19,354.28 550.69,353.57 532.65,353.1 517.43,353.11 501.86,352.04 
		487.64,350.78 474.61,349.28 458.93,346.37 446.18,343.87 428.54,339.42 416.37,336.12 403.07,332 382.82,325.3 359.63,317.12 
		343.36,310.44 331.63,304.59 323.35,299.3 315.78,293.72 	"/>
	<polyline class="st1" points="509.26,572.39 484.95,578.3 460.62,581.9 432.38,588.62 422.85,585.16 422.55,585.05 419.29,583.86 
		414.72,582.2 	"/>
	<polyline class="st1" points="679.79,552.42 655.36,548.65 632.7,546.92 610.44,541.79 589.28,542.17 567.18,546.27 542.59,553.75 
		517.47,557.43 495.95,553.2 	"/>
	<polyline class="st1" points="298.54,276.22 308.45,269.66 311.68,265.5 323.79,250.95 323.94,250.57 324.2,250.23 339.81,240.83 
		342.66,239.09 	"/>
	<polyline class="st1" points="547.91,558.83 524.31,564.66 500.9,567.03 476.27,569.74 449.23,573.91 	"/>
	<polyline class="st1" points="279.88,360.35 283.59,355.6 292.42,341.58 	"/>
	<polyline class="st1" points="683.65,665.63 662.46,654.84 643.67,649.48 625.68,644.76 608.45,643.43 591.39,642.67 
		574.45,641.59 557.46,641.68 540.05,643.44 522.2,645.83 503.61,649.26 484.63,652.48 464.11,657.82 451.31,648.49 447.37,631.31 
		443.09,615.04 432.73,603.98 423.11,594.04 411.52,587.74 393.76,588.21 366.06,597.19 354.05,591.82 353.8,591.55 348.7,585.87 
		348.41,585.55 342.14,578.58 342.73,567.57 342.98,562.94 343.23,558.25 343.35,555.93 352.2,530.06 354.29,509.52 347.99,493.18 
		336.8,477.81 322.87,463.23 321.62,461.92 321.33,441.06 327.4,419.32 333.32,398.18 338.12,377.4 349.57,357.6 353.83,337.29 
		359.63,317.12 375.06,300.57 389.53,285.04 398.16,267.22 406.85,249.3 416.31,231.71 426.9,214.87 439.23,199.77 450.07,182.65 
		463.21,168.33 478.39,157.7 495.72,152.82 510.98,145.07 526.49,139.46 543.05,140.57 557.67,136.82 571.38,127.94 585.81,119.36 
		586.99,120.14 587.83,120.47 589.02,118.77 590.68,117.39 597.55,114.01 599.94,111.66 608.67,109.97 612.96,108.66 613.69,108.91 
			"/>
	<polyline class="st1" points="364.17,165.21 386.28,156.61 390.12,155.39 390.38,155.31 393.14,153.82 397.01,153.2 407.55,149.85 
		408.21,149.65 	"/>
	<polyline class="st1" points="751.85,161.64 762.85,181.51 768.94,206.17 779.93,222.87 780.56,223.83 	"/>
	<polyline class="st1" points="531.24,86.83 544.39,91.87 563.24,94.76 582.17,101.44 599.94,111.66 607.34,107.18 611.99,102.19 
		620.3,93.36 621.46,91.65 621.52,91.61 621.66,91.49 621.99,91.43 623.68,91.15 626.15,91.52 627.06,91.42 	"/>
	<polyline class="st1" points="849.41,390.65 846.77,409.31 843.54,415.58 823.69,420.19 807.39,425.02 792.78,430.14 
		761.94,431.42 736.67,433.03 713.41,434.45 691.16,435.5 671.21,437.17 652.01,439.36 632.98,443.01 612,448.73 587.88,447.82 
		566.19,443.87 546.89,440.14 528.35,437.28 511.17,434.23 488.85,433.47 469.16,431.14 444.29,429.78 425.29,426.39 413.29,421.55 
		396.52,417.48 374.27,413.73 354.94,409.16 345.02,403.67 333.32,398.18 317.55,392.53 289.76,386.33 	"/>
	<polyline class="st1" points="683.35,688.34 681.4,689.69 670.2,697.2 667.14,699.44 666.57,699.93 666.39,700.05 665.98,700.51 
		665.92,700.6 665.33,700.99 659.87,702.69 654.91,709.08 642.73,708.69 638.81,713.03 630.58,714.36 	"/>
	<polyline class="st1" points="673.87,208.15 679.1,228.99 680.92,255.92 686.57,276.08 693.66,295.88 699.21,318.8 701.12,344.55 
		700.32,370.28 697.74,394.32 693.61,415.78 691.16,435.5 690.65,455.04 691.67,475.46 693.42,496.99 697.31,522.16 699.49,546.46 	
		"/>
	<polyline class="st1" points="448.96,125.69 467.26,119.63 487.19,113.89 507.68,111.8 523.27,117.3 529.73,119.58 529.76,119.59 
		549.12,123.92 566.21,120.88 582.68,114.28 599.94,111.66 608.16,108.91 614.4,105.09 627.67,91.43 629.21,90.56 630.92,89.78 	"/>
	<polyline class="st1" points="535.68,638.29 515.25,644.3 495.26,646.92 475.13,648.89 460.21,640.84 447.37,631.31 438.55,618.01 
		432.73,603.98 426.77,589.88 425.39,588.22 	"/>
	<polyline class="st1" points="727.11,545.41 727.93,566.49 727.55,586.64 729.76,611.95 722.12,620.59 716.23,631.39 713.04,647.6 
		698.55,655.57 683.65,665.63 	"/>
	<polyline class="st1" points="480.59,108.97 482.91,108.04 504.44,107.16 516.24,110.93 527.01,114.37 546.89,119.28 
		547.16,119.35 565.23,119.14 582.11,113.28 599.94,111.66 607.9,108.36 613.65,104.16 626.66,91.46 627.67,91.43 628.52,91.65 
		628.94,91.26 629.21,90.56 	"/>
	<polyline class="st1" points="740.08,253.87 759.6,246.37 773.42,243.43 788.1,238.9 796.31,238.6 813.05,254.31 817.69,278.06 
		823.48,300.4 840.87,318.86 843.82,342.28 849.18,354.76 	"/>
	<polyline class="st1" points="563.01,116.38 563.8,116.61 564.41,117.63 565.23,119.14 566.21,120.88 567.33,122.68 568.63,124.95 
		569.96,126.56 571.38,127.94 572.9,129.25 574.49,130.18 576.17,131.03 	"/>
	<polyline class="st1" points="777.2,120.26 779.11,121.64 779.2,122.05 781.09,123.41 795.84,133.95 	"/>
	<polyline class="st1" points="540.5,217.33 544.31,197.56 548.6,177.67 556.2,171.43 560.57,152.57 566.03,144.2 566.66,142.91 
		567.46,142.06 	"/>
	<polyline class="st1" points="356.43,471.04 354.57,451.05 352.92,430.55 354.94,409.16 365.8,387.72 376.7,367.54 387.62,348.55 
		403.07,332 409.05,313.61 416.2,295.69 428.62,281.09 440.13,266.96 450.3,252.5 457.41,235.13 465.44,218.06 474.5,201.64 
		485.28,187.38 496.86,174.44 510,165.25 523.61,158.56 528.92,161.29 534.28,163.26 539.33,163.1 549.33,153.74 558.78,147.49 
		560.33,147.15 562.34,146.75 563.41,146.25 	"/>
	<polyline class="st1" points="902.5,374.5 902.44,375.75 906.4,384 908.22,387.79 908.39,388.15 	"/>
	<polyline class="st1" points="773.18,634.79 753.28,632.62 744.15,640.9 737.12,652.08 734.42,672.04 	"/>
	<polyline class="st1" points="444.91,531.79 425.21,529.11 408.09,524.54 382.5,525.49 	"/>
	<polyline class="st1" points="852.05,241.11 866.52,254.72 883.41,270.85 887.39,279.09 890.03,284.55 892.99,290.67 	"/>
	<polyline class="st1" points="641.37,105.64 643.55,104.65 654.81,99.51 659.27,97.48 661.21,97.75 662.94,97.83 	"/>
	<polyline class="st1" points="640.11,105.02 641.08,105.77 642.58,106.23 643.59,107.31 644.05,107.93 645.04,108.78 
		646.44,109.42 646.72,109.59 647.05,109.7 647.32,109.86 648.02,110.73 658.56,120.34 673.27,127.92 685.28,140.95 686.09,141.83 
		690,141.9 694.18,140.08 709.88,150.38 726.93,147.17 746.87,151.65 754.94,146.63 762.58,141.31 770.61,134.16 773.76,133.06 
		776.95,133.11 786.97,154.59 802.14,169.44 823.94,177.94 830.04,186.28 839.52,190.75 841.36,191.94 842.13,196.35 844.48,209.79 
		844.74,211.32 845.66,216.61 	"/>
	<polyline class="st1" points="844.74,211.32 848.88,214.87 859.48,223.98 874.2,238.63 886.95,251.27 889.38,253.69 890.4,255.13 
		892.97,257.86 894.68,259.37 895.67,259.5 900.66,253.86 	"/>
	<polyline class="st1" points="771.56,108.36 784.13,119.8 785.86,120.95 788.47,122.74 789.8,123.87 792.72,126.97 794.79,127.34 
		801.56,130.56 807.2,133.9 810.05,135.43 810.93,135.86 	"/>
	<polyline class="st1" points="851.75,374.89 859.3,392.38 873.13,412.56 879.03,433.23 881.01,453.72 873.21,460.64 872.56,480.97 
		872.29,485.28 871.29,501.1 868.88,505.03 865.62,510.38 861.14,517.07 856.19,526.76 835.4,528.37 809.95,526.51 788.89,526.61 
		769.72,527.56 756.12,533.13 742.32,539.45 727.11,545.41 	"/>
	<polyline class="st1" points="749.94,647.75 747.14,665.99 747.06,666.52 	"/>
	<polyline class="st1" points="637.12,106.14 637.25,106.31 639.39,109.19 641.08,111.46 647.39,119.92 648.28,121.13 
		658.84,136.42 671.35,143.18 676.7,142.58 681.79,141.61 686.09,141.83 687.49,143 696.02,150.19 699.56,153.17 704.41,152.12 
		709.26,149.98 717.11,148.32 724.8,146.69 732.55,145.05 738.35,141.52 762.58,141.31 766.23,146.32 772.26,154.59 773.88,157.47 
		774.06,159.5 781.79,180.54 791.03,201.26 	"/>
	<polyline class="st1" points="843.41,491.51 837.63,509.23 835.4,528.37 832.82,547.38 829.78,566.25 824.39,583.4 814.02,595.81 
		806.16,610.07 800.76,627.07 797.9,634.21 795.26,641.29 794.27,643.27 790.64,646.21 786.36,649.66 780.84,654.49 776.64,660.25 
		772.79,664.37 756.73,665.25 752.5,665.13 746.68,669.01 739.99,673.89 732.07,676.96 720.19,682.81 712.73,686.49 704.92,689.99 
		694.67,687.25 684.09,688.17 683.69,688.39 681.4,689.69 	"/>
	<polyline class="st1" points="828.09,476.12 821.56,493.58 814.05,509.47 809.95,526.51 805.36,542.89 804.96,562.53 
		802.47,580.97 793.43,593.08 788.41,609.13 785.2,627.85 778.01,640.5 762.82,643.4 744.15,640.9 726.95,640.58 713.04,647.6 
		709.67,663.92 707.55,684.38 	"/>
	<polyline class="st1" points="785.72,583.03 782.99,601.25 779.33,618.91 778.01,640.5 	"/>
	<polyline class="st1" points="488.8,146.09 504.04,135.79 521.23,131.88 539.7,136.44 555.48,134.68 569.96,126.56 584.73,118.24 
		597.6,113.41 599.94,111.66 608.92,110.49 612.37,109.18 	"/>
	<polyline class="st1" points="644.7,108.33 645.07,108.6 653.28,105.18 657.9,103.24 674.49,106.07 675.07,106.26 675.35,106.37 
		676.51,106.44 676.88,106.46 677.43,107.31 693.47,116.61 710.8,126.02 731.4,128.62 754.73,128.7 776.79,132.23 777.3,133.87 	"/>
	<polyline class="st1" points="897.73,311.92 881.32,319.95 858.87,328.77 847.05,334.56 846.79,335.65 	"/>
	<polyline class="st1" points="456.77,601.23 438.97,598.65 426.77,589.88 425.24,588.14 	"/>
	<polyline class="st1" points="876.34,492.99 874.71,499.52 871.98,510.39 868.78,516.36 	"/>
	<polyline class="st1" points="582.08,113.34 599.94,111.66 606.96,98.6 612.47,91.78 614.88,82.61 	"/>
	<polyline class="st1" points="708.2,174.68 720.52,187.61 732.24,203.19 736.3,229.28 740.08,253.87 	"/>
	<polyline class="st1" points="743.34,521.65 742.32,539.45 743.28,560.11 	"/>
	<polyline class="st1" points="783.09,649.18 765.65,646.61 752.86,646.77 	"/>
	<polyline class="st1" points="646.72,109.59 647.02,109.73 649.13,109.53 652.21,109.09 670.59,110.97 687.42,120.07 
		703.46,131.03 719.23,142.1 722.42,141.67 742.7,138.88 743.09,138.82 745.84,138.12 747.74,137.57 758.99,136.02 770.67,134.32 	
		"/>
	<polyline class="st1" points="794.98,641.49 794.27,643.27 790.64,646.21 786.36,649.66 782.79,652.24 782.48,652.48 
		773.52,660.61 	"/>
	<polyline class="st1" points="582.92,114.89 599.94,111.66 604.7,97.7 607.79,90.93 608.93,82.73 	"/>
	<polyline class="st1" points="495.26,646.92 492.58,629.8 493.43,605.75 491.74,587.77 484.95,578.3 476.27,569.74 475.34,548.72 
		480.17,521.44 485.81,495.28 486.41,474.84 487.76,454.02 488.85,433.47 493.71,412.08 497.55,391.87 499.62,372.01 501.86,352.04 
		508.43,334.45 516.54,319.71 521.43,303.77 523.69,284.88 522.85,259.73 525.41,237.97 531.84,233.6 535.33,231.94 539.37,230.69 
		547.55,226.87 561.51,224.14 576.75,224.46 592,221.66 607.93,217.39 624.39,214.42 642.19,206.94 658.27,207.81 673.87,208.15 	
		"/>
	<polyline class="st1" points="624.23,106.31 624.45,106.79 625.34,108.68 631.14,121.1 631.55,121.96 631.93,122.9 638.35,138.78 
		639.63,139.71 646.02,144.36 646.8,144.93 651.86,151.07 652.08,151.34 	"/>
	<polyline class="st1" points="627.57,107.17 628.03,108.01 635.94,122.25 643.53,138.89 643.65,139.14 651.76,145.23 
		653.02,146.17 657.62,151.96 	"/>
	<polyline class="st1" points="634.01,107.08 636.62,110.43 644.52,120.58 645.07,121.52 654.06,137.09 665.49,144.34 
		668.49,147.65 670.89,150.31 673.35,153.03 	"/>
	<polyline class="st1" points="443.09,615.04 438.97,598.65 428.29,589.85 	"/>
	<polyline class="st1" points="630.82,107.57 640.3,121.54 648.9,138.4 659.44,145.06 664.14,151.15 	"/>
	<polyline class="st1" points="892.99,290.67 878.22,298.72 861.51,306.73 848.13,313.04 841.68,316.6 	"/>
	<polyline class="st1" points="743.28,560.11 727.93,566.49 708.14,567.39 687.25,565.84 667.7,566.18 649.47,570.86 630.6,577.07 
		628.59,584.44 627.19,594.36 626.36,607.99 625.75,623.47 625.68,644.76 625.95,671.38 625.73,695.04 	"/>
	<polyline class="st1" points="489.82,247.28 497.57,232.64 505.76,218.78 512.91,202.7 520.28,186.09 528.94,171.83 529.92,171 
		537.65,164.51 539.33,163.1 544.71,162.92 553.88,153.58 560.33,147.15 565.15,143.77 	"/>
	<polyline class="st1" points="871.29,501.1 855.46,505.66 837.63,509.23 814.05,509.47 790.32,508.75 773.67,511.94 756.67,514.91 
		744.02,521 	"/>
	<polyline class="st1" points="643.65,107.29 648.91,104.94 654.14,102.61 658.66,100.59 669.58,103.64 677.49,106.28 
		684.65,110.36 694.74,115.42 698.82,117.39 712.83,123.48 716.13,122.91 736.01,121.04 754.98,118.09 761.44,117.12 776.04,125.59 
		779.68,127.7 788.42,135.11 795.36,140.99 794.54,144.82 793.99,146.61 790.18,151.49 786.97,154.59 783.96,156.4 779.16,159.44 	
		"/>
	<polyline class="st1" points="471.14,259.25 480.74,245.94 488.4,230.54 497.17,216.61 504.75,200.23 512.82,183.73 522.68,170.76 
		534.28,163.26 544.62,152.06 556.19,146.91 567.26,140.8 576.8,132.67 576.88,132.6 577.92,131.71 579.42,130.17 	"/>
	<polyline class="st1" points="303.29,444.34 287.65,439.89 279.18,421.39 277.31,401.62 284.97,381.73 	"/>
	<polyline class="st1" points="585.13,121.63 586.59,119.9 588.78,118.55 590.6,118.11 597.59,113.53 599.94,111.66 597.53,94.68 
		597.82,93.51 596.28,86.84 	"/>
	<polyline class="st1" points="507.16,234.56 514.49,220.34 521.01,204.16 527.3,186.28 533.95,183.96 541.37,182.25 548.6,177.67 
		554.28,162.35 559.15,153.74 560.54,149.66 561.48,148.31 562.34,146.75 563.28,145.89 565.17,144.09 566.61,142.94 	"/>
	<polyline class="st1" points="665.56,196.68 680.84,192.19 693.91,192.25 706.81,191.21 720.52,187.61 734.23,183.21 
		743.65,184.23 753.2,204.48 761.28,205.8 768.94,206.17 777.98,203.85 784.47,203.13 791.03,201.26 808.16,214.19 823.95,229.39 
		843.47,243.34 847.23,267.01 845.35,291.73 848.13,313.04 847.55,334.31 846.79,335.65 847.64,338.64 847.83,339.3 849.18,354.76 
		853.32,364.42 852.03,373.04 851.75,374.89 850.21,385.16 849.86,387.52 849.41,390.65 852.15,403.53 846.77,409.31 850.45,431.14 
		855.16,453.5 857.33,475.66 843.41,491.51 821.56,493.58 794.87,492.54 777.84,495.91 764.75,500.38 763.41,501.52 756.67,514.91 
		756.12,533.13 754.64,550.72 761.78,578.56 764.91,603.92 761.93,622.49 753.28,632.62 733.4,629.73 716.23,631.39 701.21,638.76 
		685.95,648.51 683.65,665.63 679.96,678.4 674.2,682.96 658.37,686.23 642.3,690.61 639.6,698.19 636.27,699.94 621.77,700.29 
		607.41,708.56 606.9,716.9 606.24,717.35 602.68,716.09 593.73,714.39 592.05,714.77 590.16,712.95 588.34,711.21 586.11,709.86 
		581.53,709.03 579.92,703.15 578.13,699.53 576.43,693.94 575.71,676.05 575.62,652.48 574.45,641.59 572.93,633.58 570.91,628.7 
		568.65,623.78 568.91,599.79 569.27,576.43 568.74,559.02 567.18,546.27 565.29,533.27 563.36,518.16 564.55,491.73 564.53,469.3 
		566.19,443.87 567.48,420.4 566.89,398.4 566.79,374.88 570.19,354.28 572.98,336.32 574.8,318.66 575.95,299.9 576.62,278.92 
		576.79,253.89 576.75,224.46 578.98,210.32 592.66,204.51 607.12,203.47 621.95,200.08 637,197.27 651.4,197.27 665.56,196.68 
		673.87,208.15 687.74,210.51 701.57,210.88 716.71,207.7 732.24,203.19 743.13,204.1 753.2,204.48 753.9,205.43 765.64,221.5 
		773.42,243.43 781.65,264.65 795.05,282.99 796.92,307.72 793.86,332.66 795.75,354.61 805.79,375.28 817.34,397.25 823.69,420.19 
		822.05,442.01 813.22,460.8 806.46,478.59 787.66,481.89 775.79,488.88 766.02,498.34 765.07,499.69 764,501.09 763.78,501.38 
		754.42,511.02 742.93,521.21 722.44,524.57 697.31,522.16 675.56,523.08 652.65,520.73 630.81,518.27 610.28,519.75 589.09,524.34 
		565.29,533.27 541.64,534.16 521.31,528.11 499.8,525.71 480.17,521.44 462.8,515.76 445.19,511.15 425.08,508.65 402.19,507.6 
		381.81,504.62 377.39,493.97 373.19,475.56 378.49,453.7 378.54,433.65 374.27,413.73 377.23,392.45 392.21,372.12 404.64,353.44 
		416.37,336.12 418.94,316.43 427.62,299.12 438.99,284.05 449.15,269.1 461.32,256.8 469.98,241.83 478.08,226.08 487.25,211.52 
		496.03,195.9 505.25,180.32 516.39,168.58 528.92,161.29 540.1,150.25 552.77,146.15 556.19,146.91 559.67,146.9 563.14,145.52 
		565.2,144.4 566.66,142.91 567.46,142.06 568.74,141.32 571.8,138.29 572.61,137.39 578.08,132.18 578.33,131.8 579.42,130.17 
		582.96,124.88 583.72,123.75 585.5,122.58 588.17,120.84 588.53,120.6 589.78,119.78 590.01,119.63 591.36,119.1 592.71,118.85 
		593.89,118.31 594.61,117.82 595.28,117.69 596.13,117.37 597.24,116.79 597.34,116.74 598.08,116.55 598.83,116.36 599.56,116.18 
		600.29,116 600.94,115.83 601.54,115.68 602.03,115.56 602.46,115.45 602.5,115.44 603.97,115.7 604.44,115.29 604.83,114.94 
		605.06,114.74 605.1,114.56 605.3,114.4 605.55,114.3 605.59,114.28 605.82,114.1 606.13,113.87 606.49,113.59 606.79,113.37 
		607.14,113.11 607.48,112.85 607.86,112.56 608.44,112.13 609.2,111.56 609.37,111.43 610.09,111.01 611.57,110.15 613.19,109.2 
		613.69,108.91 615.7,107.76 616.07,107.56 617,107.02 617.94,106.9 620.16,106.61 622.02,109.54 627.08,120.77 627.37,121.7 
		632.81,138.65 639.66,144.16 640.12,144.52 644.6,147.95 647.79,150.62 652.11,151.38 652.97,151.53 656.76,152.06 657.62,151.96 
		664.14,151.15 669,150.55 673.35,153.03 678.07,155.73 678.57,156.02 679.8,157.3 680.17,157.69 681.46,159.04 681.48,159.06 
		687.26,165.08 688.95,166.35 690.18,166.32 691.06,166.7 697.45,169.55 699.44,170.27 699.56,170.62 706.81,191.21 716.71,207.7 
		723.56,229.33 726.85,254.55 736.51,272.81 744.7,293.43 742.17,320.23 746.55,342.22 753.44,363.77 765.1,386.13 766.51,409.71 
		761.94,431.42 764.57,454.14 774.08,480.78 766.53,498.19 765.36,499.16 748.06,503.75 720.12,500.96 693.42,496.99 672.54,498.01 
		650.96,497.16 631.12,499.81 610.66,504.05 588.56,509.43 563.36,518.16 542.84,509.56 523.8,503.04 503.89,499.76 485.81,495.28 
		463.32,494.86 443.44,492.04 418.88,491.72 393.63,490.87 386.07,481.68 392.91,458.71 394.2,438.2 396.52,417.48 396.66,396.81 
		409.3,376.42 425.45,358.55 428.54,339.42 434.74,321.13 443.37,304.31 451.28,287.63 458.16,270.41 471.14,259.25 479.4,259.17 
		487.86,258.12 498.3,246.75 507.34,245.71 516.24,234.62 523.4,221.3 529.02,204.34 533.95,183.96 541.92,172.01 548.31,169.42 
		554.28,162.35 555.86,159.14 559.15,153.74 560.57,152.57 568.6,149.13 576.9,143.73 585.69,137.56 595.13,136.52 602.6,138.24 
		603.72,138.5 604.61,138.7 611.04,140.54 613.88,141.35 616.22,141.65 616.98,141.75 618.93,141.67 626.46,139.6 633.46,142.02 
		640.12,144.52 646.8,144.93 653.02,146.17 659.44,145.06 665.49,144.34 671.35,143.18 682.62,155.15 696.39,161.42 710.54,169.24 
		719.86,165.78 740.2,167.56 753.79,182.76 761.28,205.8 762.8,207.75 772.34,219.96 774.18,222.32 776.14,224.66 788.1,238.9 
		799.4,258.48 808.08,280.05 816.64,301.76 818.71,325.64 820.93,348.53 827.83,370.32 834.67,392.55 843.54,415.58 848.49,438.95 
		837.26,458.24 828.09,476.12 806.46,478.59 794.87,492.54 790.32,508.75 788.89,526.61 787,544.27 790.16,566.83 785.72,583.03 
		774.43,591.47 764.91,603.92 749.98,611.46 729.76,611.95 710.24,613.6 687.69,608.06 663.71,594.26 645.3,593.76 627.19,594.36 
		609.21,599.36 608.83,599.61 597.57,607.17 590,612.26 568.65,623.78 549.34,616.8 531,610.43 513.93,603.51 493.43,605.75 
		473.65,605.78 456.77,601.23 447.94,591.78 428.29,589.85 426.28,588.72 425.39,588.22 425.24,588.14 419.73,585.03 414.72,582.2 
		406.72,574.45 405.89,573.65 404.74,572.53 403.19,571.03 401.9,550.27 408.09,524.54 402.19,507.6 393.63,490.87 402.46,465.72 
		411.3,442.28 413.29,421.55 414.09,400.82 429.19,380.45 440.71,362.16 446.18,343.87 450.51,325.33 459.04,308.98 468.13,293.9 
		470.44,273.71 478.26,261.02 479.4,259.17 480.69,257.7 489.82,247.28 498.3,246.75 507.16,234.56 516.24,234.62 525.65,234.01 
		534.96,231.49 540.5,217.33 549.58,213.55 558.92,207.18 569.71,202.96 581.46,200.68 593.56,195.75 606.32,192 619.34,189.99 
		632.52,187.64 646.45,182.09 660.43,177.52 673.5,175.83 689.06,166.96 697.45,169.55 699.37,170.07 700.02,170.56 708.2,174.68 
		719.08,173.07 734.23,183.21 743.13,204.1 752.3,224.36 759.6,246.37 769.43,266.17 779.42,286.56 775.81,313.72 773.28,337.89 
		778.21,358.74 788.21,379.41 800.37,401.63 807.39,425.02 804.88,446.78 797.95,465.97 784.11,472.04 774.08,480.78 741.14,477.34 
		715.66,476.56 691.67,475.46 670.59,475.88 651.12,478.06 631.34,480.75 610.64,483.53 588.21,491.02 564.55,491.73 544.71,484.71 
		524.82,481.1 506.31,477.09 486.41,474.84 463.96,474.05 439.2,473.77 415.81,471.96 402.46,465.72 392.91,458.71 378.49,453.7 
		354.57,451.05 331.01,447.64 321.33,441.06 304.16,435.77 293.28,429.36 292.75,408.07 290.5,402.22 290.14,401.3 290.02,389.32 
		289.76,386.33 293.35,373.31 295.81,364.4 305.58,343.25 315.16,322.62 331.63,304.59 349.45,288.55 357.53,269.29 370.95,252.93 
		381.57,235.19 393.64,218.5 398.89,195.15 413.44,179.87 427.26,163.77 444.3,152.12 461.88,142.24 481.95,138.75 498.08,128.45 
		516.23,124.5 535.8,130.77 536.2,130.9 553.33,131.83 568.63,124.95 583.77,116.64 599.94,111.66 608.41,109.41 615.09,106.02 
		628.52,91.65 628.94,91.26 629.87,90.81 630.53,90.17 630.92,89.78 631.47,90.2 632.68,90.15 633.73,90.12 634.35,89.93 
		635.1,89.16 636.3,89.38 637.04,91.61 643.42,94.19 643.89,94.09 646.7,96.27 649.97,97.02 654.35,96.66 655.46,96.75 
		659.01,96.39 661.74,97.26 663.49,97.72 664.27,97.99 668.13,99.27 676.17,101.8 678.08,102.4 680.03,103.19 685.85,105.56 
		686.14,105.74 690.49,107.88 692.97,108.78 694.29,109.12 696.58,109.94 696.66,109.96 698.74,109.67 700.04,108.94 702.79,107.38 
		717.96,98.78 721.37,96.86 731.87,97.96 748.3,91.9 752.97,93.19 757.32,99.18 759.95,102.8 764.82,105.13 771.56,108.36 
		785.86,120.95 789.8,123.87 790.17,124.09 794.79,127.35 795.82,129.28 795.84,133.95 813.05,145.13 816.66,146.99 827.3,152.48 
		831.96,154.88 834.99,156.68 836.53,159.27 846.8,169.14 845.91,175.04 858.28,191.47 869.99,201.73 874.11,205.35 887.2,221.44 
		894.68,240.66 894.71,246.18 894.97,259.71 897.43,264.15 898.41,265.75 900.35,269.09 901.06,270.23 901.46,270.79 907.92,290.19 
		906.7,311.41 903.22,317.69 905.74,330.84 906.05,332.45 906.93,337.04 908.73,341.09 913.38,351.51 915.26,355.71 905.2,374.61 
		907.04,381.95 907.12,382.34 908.32,387.74 908.4,388.14 908.42,388.2 905.57,407.67 898.97,414.01 898.76,415.03 895.02,432.79 
		890.99,439.9 890.92,440.01 889.53,447.19 883.92,465.68 879.4,483.92 876.97,490.48 876.49,491.79 876.34,492.99 873.04,501.1 
		870.82,508.53 867.52,518.22 865.52,528.06 856.76,543.5 848.77,558.9 845.51,562.96 840.69,568.99 838.02,571.91 837.41,573.13 
		835.94,576.07 830.61,584.91 827.05,591.24 814.02,595.81 793.43,593.08 782.99,601.25 773.87,612.63 761.93,622.49 741.14,620.36 
		722.12,620.59 706.87,629.03 686.98,628.27 664.02,615.93 643.95,607.54 626.36,607.99 608.7,607.49 590.72,616.87 570.91,628.7 
		550.83,632.24 530.55,634.3 510.92,633.44 492.58,629.8 475.01,625.62 459.96,618.26 456.77,601.23 	"/>
	<line class="st1" x1="856.67" y1="229.16" x2="865.76" y2="242.23"/>
	<polyline class="st1" points="536.86,85.46 546.68,85.84 564.83,90.25 582.84,99.8 	"/>
	<polyline class="st1" points="907.92,290.19 895.49,299.26 895.03,299.8 	"/>
	<polyline class="st1" points="625.74,106.7 633.26,100.96 637.87,97.44 649.91,97.5 	"/>
	<polyline class="st1" points="461.36,686.3 448.05,679.3 439.83,678.08 435.82,671.27 430.55,662.33 421.78,661.6 404.58,656.93 
		393.82,643.15 388.98,627.9 379.51,625.05 	"/>
	<polyline class="st1" points="505.02,94.97 519.5,93.94 534.01,98.91 541.75,100.79 561.86,104.93 562.04,104.98 581.21,106.5 
		593.7,109.7 599.94,111.66 606.36,105.12 609.1,99.73 616.27,92.55 616.93,91.63 620.76,82.96 	"/>
	<polyline class="st1" points="505.25,95.15 519.9,97.06 541.58,102.24 561.65,107.88 562.19,108.05 581.18,108.03 589.5,109.18 
		599.94,111.66 606.37,105.14 	"/>
	<polyline class="st1" points="617,107.02 622.36,120.38 627.41,135.57 630.25,138.59 633.46,142.02 636.55,144.31 640.15,146.99 
		647.69,150.78 	"/>
	<polyline class="st1" points="290.17,407.9 277.31,401.62 276.14,394.81 	"/>
	<polyline class="st1" points="646.69,579.97 645.3,593.76 643.95,607.54 643.5,626.17 643.67,649.48 643.62,673.37 642.3,690.61 	
		"/>
	<polyline class="st1" points="778.01,640.5 765.65,646.61 759.69,662.21 759.61,662.22 	"/>
	<polyline class="st1" points="878.05,473.02 875.34,478.79 872.44,484.97 872.29,485.28 	"/>
	<polyline class="st1" points="446.94,651.62 435.81,644.13 426.27,635.76 413.85,632.55 400.7,630.78 389.47,619.97 372.06,621.75 
		366.11,615.92 364.37,614.65 353.56,610.2 346.34,603.79 338.49,586.87 339.41,564.33 336.87,560.26 329.98,549.27 329.03,547.56 
		327.01,543.97 321.48,534.11 321.13,533.5 309.87,529.01 306.21,521.87 305.97,521.39 302.35,515.65 295.72,505.15 297.89,494.74 
		300.21,483.61 303.75,463.37 	"/>
	<polyline class="st1" points="338.12,553.75 333.19,549.4 327.95,540.65 326.18,533.82 323.26,522.56 330.4,499.65 332.54,479.96 	
		"/>
	<polyline class="st1" points="830.61,584.91 830.3,585.92 828.86,590.6 826.69,597.62 825.89,598.54 818.4,605.36 806.16,610.07 
		788.41,609.13 779.33,618.91 773.18,634.79 	"/>
	<polyline class="st1" points="687.26,165.08 688.95,166.35 693.91,192.25 701.57,210.88 707.38,232.75 714.97,252.18 
		722.15,272.81 728.96,294.46 728.52,320.74 733.21,343.29 740.14,365.71 748.44,389.31 740.28,412.13 736.67,433.03 737.6,454.41 
		741.14,477.34 748.06,503.75 742.93,521.21 732.69,531.87 717.64,540.13 699.49,546.46 690.26,549.25 682.69,551.55 679.79,552.42 
		671.54,555.73 667.7,566.18 665.11,578.68 663.71,594.26 664.02,615.93 663.61,636.32 662.46,654.84 661.5,675.25 658.37,686.23 
		656.03,701.53 651.57,704.85 644.66,703.15 638.53,700.66 636.27,699.94 633.09,701.59 630.59,709.06 619.69,713.04 618.6,713.44 
		607.38,716.99 606.89,717.02 602.68,716.09 	"/>
	<polyline class="st1" points="850.21,385.16 853.17,397.8 860.48,418.06 863.7,438.38 873.21,460.64 	"/>
	<polyline class="st1" points="627.52,107.16 627.55,107.14 631.77,104.19 634.34,102.4 638.13,99.75 649.91,97.5 	"/>
	<polyline class="st1" points="874.11,205.35 866.22,215.51 859.48,223.98 856.67,229.16 855.05,232.91 851.49,237.17 	"/>
	<polyline class="st1" points="856.76,543.5 844.61,547.28 843.26,549.93 841.04,566.42 831.74,573.61 824.39,583.4 802.47,580.97 
		785.72,583.03 	"/>
	<polyline class="st1" points="399.3,557.43 387.82,552.66 364.3,555.56 343.35,555.93 338.54,553.43 334.64,551.83 333.87,551.4 
		329.98,549.27 323.82,542.52 314.14,538.12 306.23,533.1 307.02,522.1 306.21,516.98 305.84,515.8 304.36,510.91 314.31,487.48 
		311.84,469.22 310.49,456.91 	"/>
	<polyline class="st1" points="846.9,221.68 856.67,229.16 869.27,244.5 871.54,247.26 884.92,254.05 890.03,256.64 890.41,256.83 	
		"/>
	<polyline class="st1" points="374.77,502.95 364.42,496.63 347.99,493.18 337.24,487.45 332.54,479.96 332.46,479.84 322.28,474.5 
		311.84,469.22 303.75,463.37 303.86,445.19 	"/>
	<polyline class="st1" points="791.03,201.26 801.28,194.8 811.66,187.39 819.85,181.19 	"/>
	<polyline class="st1" points="446.97,126.35 454.8,135.4 461.88,142.24 469.78,149.68 478.39,157.7 488.35,167.75 496.86,174.44 
		505.25,180.32 512.82,183.73 520.28,186.09 527.53,185.83 535.1,171.44 544.71,162.92 550.09,161.27 556.97,153.64 560.54,149.66 
		561.51,148.66 564.07,145.78 565.45,144.26 	"/>
	<polyline class="st1" points="543.32,83.88 548.14,82.7 565.94,88.82 583.71,98.64 599.94,111.66 607.48,112.85 	"/>
	<polyline class="st1" points="456,656.85 444.66,654.56 433.75,649.1 421.66,646.37 410.32,643.22 400.7,630.78 389.18,627.52 
		379.16,624.51 377.9,624.56 375.92,623.05 372.06,621.75 369.95,617.67 369.03,615.9 363.63,605.87 363.24,605.05 	"/>
	<polyline class="st1" points="418.38,156.48 427.26,163.77 436.85,171.09 450.07,182.65 463.91,194.68 474.5,201.64 487.25,211.52 
		497.17,216.61 505.76,218.78 514.49,220.34 523.4,221.3 531.72,219.65 540.5,217.33 	"/>
	<polyline class="st1" points="887.2,221.44 880.52,230.55 874.2,238.63 869.27,244.5 	"/>
	<polyline class="st1" points="873.21,460.64 864.51,467.68 857.33,475.66 828.09,476.12 	"/>
	<polyline class="st1" points="613.19,109.2 617.56,119.34 621.83,131.13 626.46,139.6 631.7,145.17 637.51,150.08 647.79,150.62 
		652.11,151.38 652.97,151.53 	"/>
	<polyline class="st1" points="487.86,258.12 498.77,258.76 510.29,259.06 522.85,259.73 535.59,259.47 548.43,257.6 562,255.02 
		576.79,253.89 592.02,251.67 607.96,247.42 624.72,243.39 643.04,236.03 662.07,229.8 679.1,228.99 692.66,232.96 707.38,232.75 
		723.56,229.33 736.3,229.28 752.3,224.36 765.64,221.5 774.18,222.32 780.56,223.83 796.31,238.6 804.85,236.96 824.69,250.57 
		827.61,275.09 829.75,298.55 841.42,317.36 841.72,317.85 847.05,334.56 847.73,338.97 843.82,342.28 820.93,348.53 795.75,354.61 
		778.21,358.74 764.33,361.75 753.44,363.77 740.14,365.71 725.58,367.28 700.32,370.28 673.91,373.2 652.42,374.69 631.12,375.73 
		610.52,375.85 588.86,375.39 566.79,374.88 545.37,374.1 529.05,373.96 513.09,373.05 499.62,372.01 486.34,370.45 472.18,368.29 
		457.61,365.64 440.71,362.16 425.45,358.55 404.64,353.44 387.62,348.55 372.04,343.46 353.83,337.29 333.31,330.01 315.16,322.62 
		302.99,316.06 290,308.92 289.64,308.44 288.78,304.03 288.66,299.35 291.16,295.17 312.36,280.96 335.29,269.44 335.58,265.55 
		329.78,258.23 324.28,250.35 325.91,245.49 337.06,237.48 342.16,233.81 342.44,233.6 343.68,231.17 345.1,228.38 349.46,219.8 
		350.68,217.39 353.9,200.95 355.01,198.75 356.27,181.28 360.21,172.25 360.39,159.38 	"/>
	<polyline class="st1" points="683.01,102.49 693.79,104.07 705.54,101.5 	"/>
	<polyline class="st1" points="413.33,654.8 409.03,653.69 401.55,647.77 398.24,638.3 397.53,636.27 	"/>
	<polyline class="st1" points="848.77,558.9 841.04,566.42 839.89,569.36 837.41,573.13 835.94,576.07 829.95,590.22 829.27,591.77 
		829.15,592.04 826.69,597.62 825.95,598.89 822.21,603.89 817.05,611.12 813.85,623.73 811.03,626.55 809.88,626.94 800.57,632.45 
		796.12,641.17 795.4,642.67 793.8,644.44 788.45,650.35 780.7,656.83 776.64,660.25 772.79,664.37 	"/>
	<polyline class="st1" points="889.53,447.19 881.01,453.72 878.05,473.02 876.97,477.51 874.67,487.06 872.02,498.08 871.29,501.1 
		868.88,505.03 865.62,510.38 856.19,526.76 	"/>
	<polyline class="st1" points="804.85,236.96 814.86,233.27 823.95,229.39 840.22,219.56 845.66,216.61 	"/>
	<polyline class="st1" points="699.49,546.46 689.93,551.11 687.25,565.84 686.66,584.66 687.69,608.06 686.98,628.27 
		685.95,648.51 	"/>
	<polyline class="st1" points="834.58,247.07 824.69,250.57 813.05,254.31 799.4,258.48 781.65,264.65 769.43,266.17 751.73,270.87 
		736.51,272.81 722.15,272.81 706.09,273.03 686.57,276.08 665.52,281.24 645.69,285.3 625.63,292.93 608.14,297.02 591.73,298.48 
		575.95,299.9 561.34,302.05 547.74,303.76 534.51,304.27 521.43,303.77 508.17,302.26 494.51,299.76 481.79,297.48 468.13,293.9 
		451.28,287.63 438.99,284.05 428.62,281.09 416.85,276.58 398.16,267.22 378.43,256.7 370.95,252.93 366.36,250.17 365.78,249.13 
		366.21,248.17 374.08,230.75 379.61,209.34 388.44,189.23 396.46,166.76 415.29,155.66 428.45,147.03 433.04,144.02 441.51,133.28 
		445.76,127.89 445.8,127.84 446.97,126.35 	"/>
	<polyline class="st1" points="545.22,693.02 535.58,696.5 534.86,696.65 530.06,697.65 523.5,699.01 515.71,696.89 502.23,699.52 
		488.99,701.26 478.04,697.31 475.82,695.81 469.87,694.89 469.33,694.28 466.49,694.13 462.1,686.69 460.18,684.11 459.54,683.51 
		455.46,679.64 450.08,674.53 443.32,672.99 439.28,672.06 431.59,662.83 431.22,662.39 429.59,660.42 421.66,646.37 413.85,632.55 
		403.9,621.42 399.04,604.39 	"/>
	<polyline class="st1" points="471.14,259.25 461.32,256.8 450.3,252.5 436.2,244.85 416.31,231.71 405.68,226.07 393.64,218.5 
		382.88,211.25 379.61,209.34 373.13,203.94 365.71,196.91 363.56,193.38 364.17,165.21 	"/>
	<polyline class="st1" points="327.21,531.74 323.26,522.56 309.67,518.42 304.36,510.91 295.72,505.15 	"/>
	<polyline class="st1" points="327.95,540.65 321.13,533.5 309.67,518.42 	"/>
	<polyline class="st1" points="629.82,107.45 633.36,106.24 636.58,105.41 638.15,104.56 638.25,104.52 656.95,97.54 659.01,96.39 
		660,96.49 661.76,97.71 666.12,99.39 668.13,99.27 676.17,101.8 678.08,102.4 679.99,103.2 686.14,105.74 690.86,107.7 
		692.97,108.78 693.76,109.1 694.42,109.81 696.82,110.48 697.37,110.26 698.2,110.95 699.71,112.5 708.33,120.03 712.77,123.73 
		734.3,124.36 758.38,123.55 776.79,132.23 778.2,131.54 794.54,144.82 811.84,154.68 813.17,155.44 831.17,165.74 832.25,166.35 
		832.83,167.73 833.33,168.91 840.99,186.9 839.55,190.48 	"/>
	<polyline class="st1" points="680.17,157.69 680.35,157.76 688.08,160.91 689.16,161.36 690.69,162.44 698.66,168.05 
		701.88,170.32 719.08,173.07 730.34,169.67 740.2,167.56 751.85,161.64 761.89,157.24 769.04,155.87 773.88,157.47 775.82,159.48 
		776.92,160.86 781.66,166.84 789.34,176.52 801.28,194.8 819.98,206.99 840.22,219.56 848.45,241.15 853.21,263.82 856.13,286.21 
		861.51,306.73 858.87,328.77 860,348.76 865.42,367.73 874.87,386.81 880.04,406.53 885.87,426.75 889.53,447.19 	"/>
	<polyline class="st1" points="848.03,226.29 855.05,232.91 865.76,242.23 868.89,244.95 871.54,247.26 	"/>
	<polyline class="st1" points="862.39,182.86 858.28,191.47 852.22,200.62 844.48,209.79 	"/>
	<polyline class="st1" points="590.16,712.95 582.96,709.68 581.53,709.03 578.81,707.49 576.24,706.04 573.34,704.41 
		569.93,702.48 566.44,699.46 562.72,698.02 560.08,697.43 560.01,697.42 557.96,696.96 554.38,696.17 550.37,692.22 545.9,690.76 
		537.2,687.91 532.27,682.46 528.84,670.37 527.37,651.41 522.2,645.83 515.25,644.3 510.92,633.44 513.93,603.51 512.55,585.93 
		509.26,572.39 	"/>
	<polyline class="st1" points="908.42,388.2 901.45,394.54 896.45,400.84 880.04,406.53 873.13,412.56 860.48,418.06 856.01,424.49 
		850.45,431.14 848.49,438.95 	"/>
	<polyline class="st1" points="883.92,465.68 878.05,473.02 872.56,480.97 863.35,488.19 843.41,491.51 	"/>
	<polyline class="st1" points="489.82,247.28 480.74,245.94 469.98,241.83 457.41,235.13 442.55,225.59 426.9,214.87 413.07,205.5 
		398.89,195.15 395.14,194.08 388.44,189.23 379.34,181.21 373.26,175.12 364.17,165.21 360.39,159.38 	"/>
	<polyline class="st1" points="370.94,227.81 364.32,221.64 361.89,217.72 363.56,193.38 359.99,187.84 356.27,181.28 	"/>
	<polyline class="st1" points="401.55,647.77 393.82,643.15 387.51,637.7 	"/>
	<polyline class="st1" points="590.01,119.63 596.67,125.51 603.11,128.44 609.47,128.92 615.83,128.21 621.83,131.13 
		627.41,135.57 632.81,138.65 638.35,138.78 643.65,139.14 648.9,138.4 654.06,137.09 658.84,136.42 663.6,134.75 676.7,142.58 
		689.02,153.72 703.66,160.12 711.2,157.15 718.95,152.81 726.93,147.17 732.55,145.05 754.94,146.63 768.85,155.24 776.41,180.97 
		784.47,203.13 796.39,220.56 814.86,233.27 834.58,247.07 843.47,243.34 848.45,241.15 851.09,238.81 851.49,237.17 849.19,231.05 
		848.03,226.29 846.9,221.68 845.66,216.61 842.13,211.31 833.15,197.85 811.66,187.39 793.66,175.13 779.16,159.44 775.82,159.48 
		773.24,157.26 771.72,156.38 770.4,155.61 768.85,155.24 746.87,151.65 738.63,155.94 729.1,161.55 711.2,157.15 696.06,153.24 
		694.76,152.9 684.76,144.19 681.96,141.75 681.79,141.61 668.58,131.21 655.32,120.9 651.99,120.68 648.28,121.13 644.52,120.58 
		640.3,121.54 635.94,122.25 631.55,121.96 627.08,120.77 622.36,120.38 617.56,119.34 612.63,118.28 607.62,116.35 605.27,114.4 
		604.8,114.58 604.63,114.64 604.48,114.7 604.36,114.75 604.3,114.77 604.26,114.79 604.21,114.8 604.05,114.86 603.96,114.9 
		603.79,114.96 603.57,115.04 603.19,115.18 602.66,115.38 602.5,115.51 603.11,128.44 604.17,138.6 605.26,153.52 605.78,173.51 
		606.32,192 607.12,203.47 607.93,217.39 607.96,247.42 607.99,274.07 608.14,297.02 608.55,316.3 609.06,335.39 609.79,354.57 
		610.52,375.85 611.05,399 611.79,424.03 612,448.73 611.31,467.52 610.64,483.53 610.66,504.05 610.28,519.75 610.44,541.79 
		610.39,561.33 610.52,584.63 609.84,592.48 609.63,592.63 592.85,603.9 589.24,606.33 568.91,599.79 550.14,591.92 532.15,585.96 
		512.55,585.93 491.74,587.77 470.84,588.79 460.62,581.9 449.23,573.91 436.42,561.42 421.6,553.27 401.9,550.27 390.99,540.95 
		388.06,535.63 387.36,534.34 386.38,532.56 386.33,532.47 382.5,525.49 379.8,514.57 379.41,512.99 377.39,493.97 367.32,486.98 
		363.33,481.14 356.43,471.04 340.66,466.11 321.62,461.92 310.47,456.67 309.28,455.86 305.79,448.07 303.86,445.19 303.29,444.34 
		301.93,442.3 301.22,441.24 294.04,430.5 293.28,429.36 292.69,421.85 291.09,408.93 290.17,407.9 289.87,402.64 289.74,400.24 
		289.51,396.16 289.06,388.18 284.97,381.73 289.07,362.16 290.62,353.91 292.65,343.1 293.16,341.52 294.6,336.91 302.99,316.06 
		323.35,299.3 340.35,283.14 344.19,277.78 346.5,274.56 349.88,269.83 352.63,265.99 354.95,263.32 355.31,262.9 359.94,257.56 
		363.36,252.62 365.65,248.9 365.95,247.9 361.54,243.25 364.32,221.64 365.71,196.91 373.26,175.12 389.9,161.24 393.39,159.03 
		398.46,155.82 402.81,153.07 408.02,149.76 408.21,149.65 414.77,146.76 418.13,145.29 418.73,145.02 418.84,144.98 421.04,144.01 
		425.46,142.07 427.83,141.03 428.07,140.93 437.2,135.73 444.16,129.05 446.97,126.35 448.96,125.69 463.43,115.87 480.59,108.97 
		481.59,108.2 482.84,107.94 485.15,107.13 485.84,106.93 496.04,93.17 496.6,92.32 496.68,92.33 498.59,96.44 501.48,102.23 
		504.44,107.16 507.68,111.8 511.81,118.16 516.23,124.5 521.23,131.88 526.49,139.46 531.08,144.05 535.81,148.39 549.56,145.42 
		562.29,139.68 574.49,130.18 577.18,128.02 584.3,122.3 585.07,121.07 585.81,119.36 597.58,113.64 599.94,111.66 608.82,111.6 
		609.91,111.02 610.53,110.62 611.97,109.66 612.96,108.66 613.94,108 616.01,107.46 615.89,106.8 617.41,104.54 630.53,91.71 
		631.47,90.2 632.43,89.85 633.87,89.52 635.46,89.52 636.52,89.51 637.5,90.98 643.28,94.31 643.88,94.38 647.19,95.72 
		648.74,96.35 650.03,96.53 651.71,96.41 652.17,96.37 652.65,96.34 653.8,96.9 655.46,96.75 657.9,95.96 658.16,95.93 
		658.83,96.08 659.18,96.7 659.27,97.48 658.66,100.59 657.9,103.24 657.02,105.38 656.25,106.61 655.18,106.62 655.11,106.66 
		654.86,106.63 654.06,106.54 648.87,109.51 649.05,110.33 650.39,110.4 652.21,109.09 654.07,106.52 654.31,106.42 654.46,106.36 
		656.58,106.08 672.93,108.64 675.06,106.27 676.45,106.76 676.8,107.58 677.52,108.05 682.48,111.28 691.95,117.45 709.17,126.8 
		710.8,126.02 712.47,124 713.08,123.45 716.13,122.91 735.78,120.29 757.29,114.71 762.19,113.59 773.47,120.96 779.68,125.02 
		780.36,125.62 795.26,138.76 795.7,141.27 800.71,143.71 812.59,148.75 813.83,148.67 815.12,150.72 832.15,163.42 832.27,163.59 
		835.86,168.42 837.27,170.32 844.71,180.33 852.22,200.62 866.22,215.51 880.52,230.55 888.41,249.26 889.78,254.08 890.41,256.83 
		891.1,257.18 892.27,257.77 894.15,258.73 895.07,259.19 895.09,260.05 895.14,260.37 894.92,261.53 897.23,264.8 900.35,269.09 
		901.07,270.14 901.46,270.79 898.55,276.76 893.02,281.82 892.99,290.67 895.03,299.8 895.27,300.88 897.73,311.92 899.67,320.38 
		902.51,332.75 904,338.66 907.05,350.68 907.72,353.33 905.84,360.95 903.83,369.12 902.5,374.5 902.01,374.85 893.78,380.69 
		874.87,386.81 859.3,392.38 853.17,397.8 852.15,403.53 856.01,424.49 859.78,445.73 864.51,467.68 863.35,488.19 855.46,505.66 
		856.19,526.76 852.56,532.77 852.13,533.48 846.81,542.28 832.82,547.38 805.36,542.89 787,544.27 771.8,548.28 754.64,550.72 
		743.28,560.11 746.28,584.41 749.98,611.46 741.14,620.36 733.4,629.73 726.95,640.58 723.68,657.79 709.67,663.92 695.24,671.06 
		679.96,678.4 661.5,675.25 643.62,673.37 625.95,671.38 608.38,664.42 591.61,659.22 575.62,652.48 560.07,648.38 544.09,648.61 
		527.37,651.41 509.99,655.19 491.23,661.25 471.28,668.31 459.24,658.72 458.6,658.35 456,656.85 446.94,651.62 442.5,634.88 
		433.52,624.1 419,622.28 403.9,621.42 389.47,619.97 374.47,612.23 366.06,597.19 360.58,579.55 364.3,555.56 368.89,532.53 
		372,511.69 364.42,496.63 357.49,480.41 336.8,477.81 327.18,471.42 322.33,467.2 321.68,466.64 320.09,465.26 314.44,460.34 
		310.47,456.67 309.28,455.86 308.23,451.73 304.16,435.77 316.21,413.4 317.55,392.53 319.43,371.4 325.69,350.5 333.31,330.01 
		343.36,310.44 362.25,294.87 370.65,276.04 378.43,256.7 393.04,241.76 405.68,226.07 413.07,205.5 424.03,187.47 436.85,171.09 
		453.29,159.86 469.78,149.68 488.8,146.09 495.72,152.82 502.9,159.45 510,165.25 516.39,168.58 522.68,170.76 528.94,171.83 
		535.1,171.44 541.92,172.01 548.95,162.77 550.09,161.27 555.38,157.28 556.97,153.64 558.23,150.9 561.25,148.63 566.59,144.15 
		566.63,144.12 570.48,141.56 573.35,139.65 580.27,132.36 587.82,126.89 589.55,121.16 590.01,119.63 	"/>
	<polyline class="st1" points="780.56,223.83 788.99,222.25 796.39,220.56 808.16,214.19 819.98,206.99 833.15,197.85 
		841.36,191.94 	"/>
	<polyline class="st1" points="613.88,141.35 614.04,141.92 616.23,149.53 617.88,169 619.34,189.99 621.95,200.08 624.39,214.42 
		624.72,243.39 625.47,267.65 625.63,292.93 626.84,313.18 628.19,333.43 629.62,354.17 631.12,375.73 632.43,398.3 633.46,421.53 
		632.98,443.01 632.07,462.36 631.34,480.75 631.12,499.81 630.81,518.27 632.7,546.92 632.74,568.36 630.6,577.07 629.58,577.45 
		610.52,584.63 589.44,580.88 569.27,576.43 549.98,572.01 530.36,570.6 509.26,572.39 500.9,567.03 495.95,553.2 475.34,548.72 
		456.6,543.01 444.91,531.79 445.19,511.15 443.44,492.04 439.2,473.77 436.92,453.47 444.29,429.78 455.34,407.17 467.34,387.01 
		472.18,368.29 474.61,349.28 479.14,330.89 488.55,315.9 494.51,299.76 498.17,281.61 498.77,258.76 507.34,245.71 516.84,243.84 
		525.41,237.97 535.33,231.94 541.93,228.18 544.72,226.28 549.58,213.55 552.97,193.81 556.2,171.43 564.79,166.24 574.23,162.46 
		584.19,159.04 594.6,157.09 605.26,153.52 616.23,149.53 627.34,146.55 637.51,150.08 643.05,160.06 646.45,182.09 651.4,197.27 
		658.27,207.81 662.07,229.8 662.63,258.71 665.52,281.24 669.01,302.94 672.65,325.04 673.79,349.36 673.91,373.2 673.44,395.92 
		672.42,417.24 671.21,437.17 670.59,456.48 670.59,475.88 672.54,498.01 675.56,523.08 679.79,552.42 	"/>
	<polyline class="st1" points="592.29,715 591.76,706.53 591.62,683.87 591.61,659.22 591.39,642.67 591.24,624.93 590.72,616.87 
		590,612.26 589.24,606.33 589.44,580.88 589.51,558.99 589.28,542.17 589.09,524.34 588.56,509.43 588.21,491.02 587.62,472.73 
		587.88,447.82 588.23,423.12 588.34,399.23 588.86,375.39 590.01,354.86 590.8,336.15 591.37,317.9 591.73,298.48 591.98,277.38 
		592.02,251.67 592,221.66 592.66,204.51 593.56,195.75 594.11,177.84 594.6,157.09 595.13,136.52 595.97,133.91 596.67,125.51 
		597.34,116.74 	"/>
	<polyline class="st1" points="379.57,514.49 372,511.69 354.29,509.52 340.32,505.4 330.4,499.65 321.28,493.82 314.31,487.48 
		300.21,483.61 289.91,478.49 287.63,459.36 287.64,448.97 275.9,436.55 273.97,434.51 275.91,414.53 276.14,394.81 268.74,374.6 
		279.88,360.35 275.98,348.5 285.54,333.42 280.29,316.41 288.41,305.38 	"/>
	<polyline class="st1" points="342.98,562.94 339.85,555.27 338.54,553.43 333.19,549.4 331.48,544.35 327.21,531.74 340.32,505.4 
		337.24,487.45 	"/>
	<polyline class="st1" points="647.39,109.82 648.9,108.75 653.71,106.64 654,106.53 654.07,106.52 655.14,106.64 656.2,106.69 
		675.04,106.29 676.67,106.47 677.11,106.52 677.85,105.09 682.39,105.62 684.23,106.19 690.56,107.82 691,107.66 691.23,107.76 
		693.49,108.68 694.09,108.92 	"/>
	<polyline class="st1" points="439.83,678.08 433.36,674.62 421.78,661.6 	"/>
	<polyline class="st1" points="752.97,93.19 754.19,100.05 754.58,107.15 756.36,110.54 	"/>
	<polyline class="st1" points="694.18,140.08 699.08,135.35 703.46,131.03 707.1,127.54 	"/>
	<polyline class="st1" points="292.57,367.74 289.07,362.16 283.59,355.6 275.98,348.5 	"/>
	<polyline class="st1" points="673.92,96.31 678.13,101.25 678.62,101.16 679.8,102.4 683.01,102.49 687.05,105.54 696.4,105.38 
		705.54,101.5 716.22,96.97 	"/>
	<polyline class="st1" points="560.6,708.69 554.53,710.86 548.75,711.53 538.52,712.74 	"/>
	<polyline class="st1" points="810.33,627.25 807.21,632.8 804.85,634.99 795.32,643.83 788.45,650.35 	"/>
	<polyline class="st1" points="682.89,688.45 677.33,691.28 670.2,697.2 668.79,698.4 667.17,699.52 666.27,700.25 665.33,700.99 
		663.54,703.25 659.78,708.19 658.01,709.18 649.9,713.67 641.34,713.17 638.81,713.03 634.7,715.39 630.58,714.36 627.91,714.8 
		619.69,713.04 	"/>
	<polyline class="st1" points="723.98,137.2 728.11,132.59 731.4,128.62 734.3,124.36 736.01,121.04 735.67,119.64 734.59,119 
		712.97,119.84 712.21,119.83 702.52,113.79 701.4,113.09 	"/>
	<polyline class="st1" points="663.6,134.75 668.58,131.21 673.27,127.92 677.62,124.86 681.55,122.23 	"/>
	<polyline class="st1" points="352.63,265.99 357.53,269.29 370.65,276.04 389.53,285.04 404.62,291.55 416.2,295.69 427.62,299.12 
		443.37,304.31 459.04,308.98 474.96,313.39 488.55,315.9 502.48,318.06 516.54,319.71 530.59,320.63 544.41,320.28 559.44,320.12 
		574.8,318.66 591.37,317.9 608.55,316.3 626.84,313.18 647.51,307.56 669.01,302.94 693.66,295.88 713.86,293.63 728.96,294.46 
		744.7,293.43 761.29,290.84 779.42,286.56 795.05,282.99 808.08,280.05 817.69,278.06 827.61,275.09 836.02,272.12 847.23,267.01 
		853.21,263.82 860.93,259.07 866.52,254.72 868.05,251.8 871.54,247.26 	"/>
	<polyline class="st1" points="351.13,256.27 348.28,251.15 341.94,243.43 342.66,239.09 344.28,235.17 348.16,225.74 
		349.86,221.61 	"/>
	<polyline class="st1" points="573.34,704.41 567.51,704.85 560.35,705.76 553.02,708.25 545.22,708.86 537.45,708.53 
		527.87,709.95 518.64,710.31 	"/>
	<polyline class="st1" points="597.35,116.57 599.94,111.66 596.33,94.53 594.47,87.24 593.9,85.56 593.83,85.35 	"/>
	<polyline class="st1" points="557.96,696.96 552.39,698.26 541.28,702.03 530.42,704.1 519.65,705.74 509.11,706.79 	"/>
	<polyline class="st1" points="633.31,107.19 633.36,106.24 635.5,103.97 638.19,102.32 654.32,96.86 658.5,96.06 660,96.49 
		663.12,97.8 663.89,98.12 666.12,99.39 673.34,102.59 677.85,105.09 688.47,108.74 694.42,109.81 696.6,109.97 696.82,110.04 
		697.09,110.22 697.37,110.26 698.99,110.21 702.65,109.17 705.94,109.46 728.27,101.8 737.55,98.56 752.97,93.19 759.56,98.57 
		771.56,108.36 772.54,114.84 773.85,118.85 779.18,122.04 779.68,125.02 779.68,127.7 778.63,130.86 777.93,132.46 778.06,132.67 
		793.99,146.61 809.99,160.54 830.29,167.82 832.23,168.51 839.25,190.25 	"/>
	<polyline class="st1" points="393.32,141.1 398.79,140.57 406.42,142.08 413.09,141.76 419.21,140.05 427.7,141.02 427.82,141.04 	
		"/>
	<polyline class="st1" points="577.77,708.46 572.57,707.07 566.68,706.68 560.35,705.76 553.89,705.66 547.74,707.94 
		545.22,708.86 536.83,710.47 527.87,709.95 519.65,705.74 511.39,701.43 502.23,699.52 495.55,689.38 483.14,686.47 477.47,672.24 
		474.46,669.19 471.28,668.31 464.11,657.82 460.21,640.84 459.96,618.26 	"/>
	<polyline class="st1" points="463.43,115.87 467.26,119.63 474.7,129.79 481.95,138.75 488.8,146.09 	"/>
	<polyline class="st1" points="293.38,344.9 293.34,339.59 291.74,334.28 290.74,331.28 290.26,329.39 288.62,320.71 288.36,318.33 
		288.68,314.62 	"/>
	<polyline class="st1" points="623.2,695.49 621.77,700.29 620.21,707.26 618.76,712.84 618.6,713.44 	"/>
	<polyline class="st1" points="613.88,141.35 618.85,141.33 623,142.52 627.34,146.55 630.25,165.24 632.52,187.64 637,197.27 
		642.19,206.94 643.04,236.03 643.45,263.98 645.69,285.3 647.51,307.56 649.58,329.4 650.85,352.2 652.42,374.69 652.35,397.2 
		652.43,418.83 652.01,439.36 651.18,458.52 651.12,478.06 650.96,497.16 652.65,520.73 655.36,548.65 653.2,563.2 649.47,570.86 
		646.69,579.97 628.59,584.44 610.2,592.33 609.21,599.36 608.7,607.49 608.46,621.92 608.45,643.43 608.38,664.42 608.4,690.93 
		607.86,698.26 591.76,706.53 	"/>
	<polyline class="st1" points="572.92,709.09 568.19,709.16 561.14,708.73 560.6,708.69 553.02,708.25 545.71,710.73 538.52,712.74 
		528.38,712.68 	"/>
	<polyline class="st1" points="535.81,148.39 540.1,150.25 544.62,152.06 549.33,153.74 553.88,153.58 558.23,150.9 	"/>
	<polyline class="st1" points="342.73,567.57 339.41,564.33 328.85,560.56 323.82,542.52 309.76,528.96 309.53,528.68 
		306.21,521.89 	"/>
	<polyline class="st1" points="678.07,155.73 682.62,155.15 689.02,153.72 694.76,152.9 699.56,153.17 718.95,152.81 738.63,155.94 
		761.89,157.24 	"/>
	<polyline class="st1" points="496.68,92.32 496.78,92.38 504.47,95.27 504.84,95.01 505.41,94.85 515.78,89.63 519.7,87.74 
		542.63,98.17 562.26,99.33 581.52,103.61 599.94,111.66 606.79,113.37 	"/>
	<polyline class="st1" points="317.24,290.79 317.07,286.93 312.36,280.96 311.23,275.88 308.45,269.66 	"/>
	<polyline class="st1" points="661.81,118.53 664.9,116.42 667.86,113.76 670.59,110.97 672.93,108.64 	"/>
	<polyline class="st1" points="551.8,76.73 549.86,78.99 549.75,79.17 548.14,82.7 546.68,85.84 545.34,88.4 544.39,91.87 
		543.63,95.05 542.95,97.45 542.31,98.9 541.85,100.06 541.58,102.24 541.72,103.02 552.37,107.12 553.87,107.7 562.34,110.97 
		562.49,111.02 581.21,109.53 588.4,109.92 599.94,111.66 606.01,104.38 	"/>
	<polyline class="st1" points="829.27,591.77 829.63,595.05 826.57,603.16 815.21,622.38 814.76,623.14 814.51,623.57 
		813.47,625.24 813.23,625.74 807.21,632.8 799.16,638.52 797.49,641.19 794.06,645.1 793.22,645.89 792.17,646.87 787.87,650.07 
		782.53,654.88 780.7,656.83 	"/>
	<polyline class="st1" points="565.82,699.94 562.69,700.95 553.89,705.66 547.5,704.62 541.28,702.03 535.58,696.5 528.51,696.73 
		522.11,692.93 515.52,688.91 512.8,671.36 509.99,655.19 503.61,649.26 495.26,646.92 	"/>
	<polyline class="st1" points="338.82,280.31 340.35,283.14 349.45,288.55 362.25,294.87 375.06,300.57 393.31,307.87 
		409.05,313.61 418.94,316.43 434.74,321.13 450.51,325.33 464.4,328.19 479.14,330.89 494.03,333.12 508.43,334.45 524.47,336.11 
		539.64,336.36 556.4,337.09 572.98,336.32 590.8,336.15 609.06,335.39 628.19,333.43 649.58,329.4 672.65,325.04 699.21,318.8 
		714.61,320.13 728.52,320.74 742.17,320.23 759.56,317.04 775.81,313.72 796.92,307.72 816.64,301.76 823.48,300.4 829.75,298.55 
		840.89,294.11 845.35,291.73 856.13,286.21 870.78,278.46 883.41,270.85 893.09,263.8 894.52,260.96 895.09,260.05 895.34,259.33 	
		"/>
	<polyline class="st1" points="585.5,122.58 587.41,120.31 589.41,119.28 589.73,119.45 590.29,118.68 591,118.76 592.66,118.26 
		593.63,117.93 594.49,117.65 595.24,117.41 595.98,117.16 596.82,116.88 598.09,116.47 599.94,111.66 585.08,97.1 568.5,85.21 
		560.42,81.11 557.75,79.75 	"/>
	<polyline class="st1" points="355.31,262.9 353.42,260.5 351.13,256.27 358.54,238.81 361.89,217.72 357.16,211.38 359.99,187.84 
		360.21,172.25 	"/>
	<polyline class="st1" points="670.61,697.14 668.34,698.91 667.11,700.24 663.54,703.25 662.07,703.66 654.91,709.08 649.9,713.67 
		634.7,715.39 	"/>
	<polyline class="st1" points="560.08,697.43 557.69,698.73 552.39,698.26 549.73,694.57 545.22,693.02 542.27,692 537.2,687.91 
		522.11,692.93 507.93,693.67 495.55,689.38 493.19,682.21 493.15,682 491.23,661.25 484.63,652.48 475.13,648.89 	"/>
	<polyline class="st1" points="598.73,88.16 601.16,89.27 602.46,89.54 603.58,89.78 605.97,90.41 607.24,90.77 608.34,91.08 
		608.46,91.11 610.67,91.41 611.98,91.68 	"/>
	<polyline class="st1" points="616.22,141.65 618.93,141.67 623,142.52 631.7,145.17 640.15,146.99 647.89,150.46 	"/>
	<polyline class="st1" points="428.07,140.93 430.18,142.47 433.04,144.02 437.17,146.34 444.3,152.12 453.29,159.86 463.21,168.33 
		473.29,176.43 485.28,187.38 496.03,195.9 504.75,200.23 512.91,202.7 521.01,204.16 529.02,204.34 536.52,201.64 541.37,182.25 
		546.69,172.41 548.31,169.42 553.69,160.17 555.38,157.28 	"/>
	<polyline class="st1" points="625.73,695.04 623.46,694.61 607.86,698.26 	"/>
	<polyline class="st1" points="388.06,535.63 386.5,534.25 368.89,532.53 352.2,530.06 327.21,531.74 	"/>
	<polyline class="st1" points="406.72,574.45 405.09,573.71 384.91,575.27 360.58,579.55 342.14,578.58 	"/>
	<polyline class="st1" points="693.49,108.68 695.15,108.34 698.99,110.21 705.94,109.46 708.36,111.07 710.16,113.26 
		730.89,111.81 754.58,107.15 760.34,109.61 764.01,111.18 772.54,114.84 778.49,117.95 786.98,122.4 789.62,123.56 794.57,125.98 
		802.69,130.28 806.64,133.45 810.93,135.86 	"/>
	<polyline class="st1" points="541.67,101.53 541.72,103.02 542.08,104.87 542.12,104.89 549.03,107.69 557.77,111.22 
		562.45,113.12 562.83,113.27 	"/>
	<polyline class="st1" points="289.83,389.1 289.06,388.18 289.44,386.25 292.78,369.27 292.57,367.74 291.28,358.61 	"/>
	<polyline class="st1" points="676.02,107.07 676.85,106.48 677.31,106.62 686.24,109.69 696,113.1 708.33,120.03 713.19,122.95 	
		"/>
	<polyline class="st1" points="681.48,159.06 682.12,159.23 689.16,161.36 696.39,161.42 703.66,160.12 719.86,165.78 729.1,161.55 
		751.85,161.64 	"/>
	<polyline class="st1" points="582.08,113.34 581.79,112.89 581.53,111.97 581.36,111.2 581.25,110.23 581.18,108.84 581.17,107.21 
		581.25,105.79 581.4,104.25 581.64,102.98 581.97,101.97 582.37,100.9 582.84,99.8 583.4,98.98 584.02,98.29 584.71,97.5 
		585.46,96.7 586.28,96.12 	"/>
	<polyline class="st1" points="578.33,131.8 577.92,131.71 576.17,131.03 564.7,140.19 552.77,146.15 549.56,145.42 546.29,143.37 
		543.05,140.57 539.7,136.44 536.2,130.9 532.93,125.44 529.76,119.59 527.01,114.37 524.76,110.06 523.15,107.05 521.57,103.04 
		520.61,100.18 519.9,97.06 519.5,93.94 519.51,91.13 519.7,87.74 519.96,83.42 	"/>
	<polyline class="st1" points="616.07,107.56 616.18,107.28 617.39,106.76 618.89,106.7 619.72,106.61 620.99,106.2 623.03,106.07 
		623.9,106.22 632.05,99.33 637.51,94.71 646.2,96.82 	"/>
	<polyline class="st1" points="589.23,81.61 589.25,81.59 596.41,82.65 603.24,83.37 606.01,83.19 607.19,83.01 608.93,82.73 
		614.88,82.61 620.76,82.96 626.53,83.82 632.43,82.4 638.37,80.42 643.45,84.16 646.25,87.6 647.85,90.61 651.32,92.46 
		655.63,94.76 658.39,94.65 660.09,95.7 661.44,96.54 668.06,96.77 673.92,96.31 678.62,101.16 679.57,101.62 683.01,102.49 
		687.73,105.39 691.03,107.65 695.15,108.34 700.79,105.3 709.39,100.66 716.22,96.97 721.37,96.86 724.46,100.7 728.27,101.8 
		729.88,106.75 730.89,111.81 731.62,116.3 733.07,118.23 734.59,119 761.2,111.93 763.59,113.27 769.23,116.44 773.85,118.85 
		777.2,120.26 779.11,121.64 780.55,122.03 792.72,126.97 795.17,129.76 796.37,129.54 807.07,133.8 810.93,135.86 813.86,138.77 
		818.39,142.81 831.96,154.88 	"/>
	<polyline class="st1" points="288.78,304.03 296.12,300.62 313.91,292.34 317.24,290.79 338.82,280.31 341.37,277.9 342.74,276.42 
		342.92,276.06 352.63,265.99 	"/>
	<polyline class="st1" points="288.66,299.35 293.17,297.38 310.48,289.81 317.07,286.93 337.71,278.25 342.68,276.37 
		343.62,275.77 349.88,269.83 	"/>
	<polyline class="st1" points="290.24,308.78 298.9,303.67 315.78,293.72 317.24,290.79 329.31,285.85 335.16,282.44 338.82,280.31 
		342.26,276.74 342.53,276.22 350.58,264.61 353.42,260.5 361.54,243.25 358.54,238.81 354.48,233.02 357.16,211.38 354.5,205.77 
		355.01,198.75 	"/>
	<polyline class="st1" points="284.39,287.72 284.52,287.66 311.23,275.88 332.53,266.85 335.58,265.55 348.28,251.15 
		354.48,233.02 351.03,226.92 349.86,221.61 350.68,217.39 	"/>
	<polyline class="st1" points="519.96,83.42 520.39,83.69 522.07,84.33 523.78,83.98 526.08,84.18 530.89,85.23 534.53,86.03 
		545.34,88.4 563.93,92.26 582.61,100.35 599.94,111.66 607.64,107.8 612.84,103.18 622.66,93.83 625.13,91.69 625.52,91.36 
		625.59,91.3 626.83,91.3 627.43,91.09 	"/>
	<polyline class="st1" points="522.39,84.9 527.18,87.83 542.95,97.45 	"/>
	<polyline class="st1" points="498.59,96.44 507.69,100.37 508.88,100.89 522.87,106.93 523.15,107.05 523.19,107.06 543.94,110.82 
		546.9,111.69 555.25,114.12 563.12,115.61 581.44,111.58 599.94,111.66 605,114.51 	"/>
	<polyline class="st1" points="360.39,159.38 377.24,156.81 385.46,155.56 386.46,156 389.9,161.24 391.69,162.87 396.46,166.76 
		406.39,175.38 413.44,179.87 424.03,187.47 439.23,199.77 453.67,210.77 465.44,218.06 478.08,226.08 488.4,230.54 497.57,232.64 
		507.16,234.56 	"/>
	<polyline class="st1" points="393.32,141.1 400.72,142.35 418.13,145.29 	"/>
	<polyline class="st1" points="505.25,95.15 520.28,100.07 520.61,100.18 541.28,104.7 542.08,104.87 542.65,106.61 543.94,110.82 
		545.47,115.22 547.16,119.35 549.12,123.92 551.18,128.1 553.33,131.83 555.48,134.68 557.67,136.82 559.95,138.52 562.29,139.68 
		564.7,140.19 567.26,140.8 568.7,140.93 	"/>
	<polyline class="st1" points="618.11,106.72 620.15,105.39 622.61,102.84 632.48,91.86 633.73,90.12 633.87,89.52 	"/>
	<polyline class="st1" points="524.08,84.97 528.84,87.42 543.63,95.05 562.68,97.09 581.81,102.48 599.94,111.66 607.04,106.54 
		611.07,101.29 620.3,93.36 623.11,91.65 623.36,91.43 623.68,91.15 	"/>
	<polyline class="st1" points="619.66,106.68 620.67,106.54 621.6,106.48 623.77,106.34 624.23,106.31 625.74,106.7 627.52,107.16 
		627.57,107.17 629.82,107.45 630.82,107.57 633.31,107.19 634.01,107.08 637.12,106.14 638.04,105.8 640.11,105.02 641.08,105.77 
		643.14,109.01 644.54,109.64 645.85,110 647.82,112.26 654.83,120.33 655.32,120.9 658.56,120.34 661.81,118.53 677.62,124.86 
		688.83,140.28 690,141.9 704.41,152.12 707.1,151.53 709.88,150.38 714.34,146.33 719.23,142.1 723.98,137.2 745.84,138.12 
		748.89,137.88 758.99,136.02 770.39,133.49 772.48,132.76 773.76,133.06 783.96,156.4 797.53,173.2 819.85,181.19 823.94,177.94 
		828.71,173.11 832.23,168.51 832.25,166.35 832.15,163.42 834.99,156.68 	"/>
	<polyline class="st1" points="849.19,231.05 851.21,237.66 868.05,251.8 891.8,263.18 893.72,264.1 894.07,265.88 898.55,276.76 
		895.49,299.26 900.27,310.67 903.22,317.69 	"/>
	<polyline class="st1" points="577.06,75.27 577.67,76.27 588.57,95.11 599.94,111.66 606.49,113.59 	"/>
	<polyline class="st1" points="290.68,323.71 290.33,312.05 290.24,308.78 288.78,304.03 	"/>
	<polyline class="st1" points="504.24,95.57 509.07,97.65 520.6,102.62 521.57,103.04 541.85,106.47 542.65,106.61 560.9,113.9 
		563.03,114.05 581.3,110.71 586.49,110.63 599.94,111.66 608.05,99.15 614.75,92.24 615.21,91.82 616.65,91.62 617.72,92.2 
		619.4,91.71 619.58,91.56 	"/>
	<polyline class="st1" points="703.45,112.05 705.35,112.64 710.16,113.26 711.85,114.65 731.62,116.3 756.36,110.54 758.91,111.5 	
		"/>
	<polyline class="st1" points="285.54,333.42 286.8,331.43 287.52,330.29 286.64,324.12 288.12,318.08 288.69,316.86 	"/>
	<polyline class="st1" points="481.59,108.2 482.03,108.07 482.84,107.94 487.19,113.89 491.85,119.66 498.08,128.45 504.04,135.79 
		510.98,145.07 517.62,153.02 523.61,158.56 	"/>
	<polyline class="st1" points="413.58,155.48 425.01,146.52 425.08,146.47 430.18,142.47 437.66,135.47 445.76,127.89 	"/>
	<polyline class="st1" points="836.53,159.27 845.91,175.04 844.71,180.33 840.99,186.9 841.25,189 841.58,191.78 842.13,196.35 	
		"/>
	<polyline class="st1" points="301.93,442.3 293.36,432.52 289.03,427.58 290.17,407.9 	"/>
	<polyline class="st1" points="294.04,430.5 293.3,430.07 289.03,427.58 279.18,421.39 275.91,414.53 	"/>
	<polyline class="st1" points="586.73,708.92 582.09,703.85 579.27,700.77 578.13,699.53 576.63,698.88 564.34,693.54 
		550.37,692.22 546.81,684.94 545.07,668.02 544.09,648.61 540.05,643.44 535.68,638.29 	"/>
	<polyline class="st1" points="359.94,257.56 361.86,255.35 366.36,250.17 376.02,232.08 382.88,211.25 395.14,194.08 
		406.39,175.38 418.38,156.48 	"/>
	<polyline class="st1" points="485.84,106.93 486.53,106.72 501.48,102.23 514.86,106.73 524.27,109.9 524.76,110.06 545.26,115.17 
		545.47,115.22 560.98,117.2 563.96,117.1 581.66,112.43 599.94,111.66 605.46,114.22 605.59,114.28 	"/>
	<polyline class="st1" points="812.38,138.06 813.86,138.77 818.22,143.22 827.3,152.48 	"/>
	<polyline class="st1" points="796.28,130.29 813.12,138.42 813.05,145.13 813.17,149.06 815.4,150.05 829.32,154.54 833.23,156.02 
		834.99,156.68 	"/>
	<polyline class="st1" points="291.09,408.93 291.01,408.31 290.42,403.56 290.14,401.3 291.14,396.32 290.93,394.82 290.02,389.32 
		289.76,386.33 	"/>
	<polyline class="st1" points="398.79,140.57 405.71,142.11 415.49,144.3 418.73,145.02 	"/>
	<polyline class="st1" points="581.59,76.65 583.78,80.77 586.07,85.06 590.57,94.54 590.52,95.38 599.94,111.66 605.82,114.1 	"/>
	<polyline class="st1" points="902.44,375.75 901.45,394.54 898.97,414.01 891.91,420.3 891,439.6 890.92,440.01 	"/>
	<polyline class="st1" points="591.76,706.53 588.97,704.23 577.68,694.97 576.43,693.94 561.85,685.76 546.81,684.94 
		532.27,682.46 515.52,688.91 500.7,687.82 493.17,681.99 493.09,681.92 483.95,673.43 477.47,672.24 469,669.12 465.55,667.85 
		453.06,665.56 444.66,654.56 435.81,644.13 433.52,624.1 428.5,608.74 423.11,594.04 419.73,585.03 	"/>
	<polyline class="st1" points="379.8,514.57 379.48,513.74 374.77,502.95 367.32,486.98 357.49,480.41 357.29,480.24 341.82,467.1 
		340.66,466.11 331.01,447.64 337.16,425.37 345.02,403.67 351.61,382.71 364.77,362.96 372.04,343.46 382.82,325.3 393.31,307.87 
		404.62,291.55 416.85,276.58 427.48,261.34 436.2,244.85 442.55,225.59 453.67,210.77 463.91,194.68 473.29,176.43 488.35,167.75 
		502.9,159.45 517.62,153.02 531.08,144.05 546.29,143.37 559.95,138.52 572.9,129.25 585.6,120.09 585.44,119.05 584.73,118.24 
		584.07,117.21 583.47,116.07 582.92,114.89 582.44,113.67 582.08,113.34 564.41,117.63 563.96,117.1 563.23,114.84 562.83,113.27 
		562.49,111.02 562.19,108.05 562.04,104.98 562.06,102.09 562.26,99.33 562.68,97.09 563.24,94.76 563.93,92.26 564.83,90.25 
		565.94,88.82 567.16,87.11 568.5,85.21 569.94,83.04 571.52,80.91 573.07,78.58 575.08,76.95 577.06,75.27 579.21,74.65 
		581.59,76.65 584.01,78.57 586.44,80.23 588.87,81.33 588.96,81.54 589.15,81.7 589.27,81.64 591.35,83.29 593.83,85.35 
		595.67,86.47 596.28,86.84 597.18,87.33 598.73,88.16 599.94,95.55 599.94,111.66 597.61,113.18 583.77,116.64 567.33,122.68 
		551.18,128.1 532.93,125.44 524.78,122.63 511.81,118.16 491.85,119.66 474.7,129.79 454.8,135.4 437.17,146.34 418.38,156.48 
		415.29,155.66 413.58,155.48 391.69,162.87 379.34,181.21 373.13,203.94 370.94,227.81 374.08,230.75 376.02,232.08 381.57,235.19 
		393.04,241.76 406.85,249.3 427.48,261.34 440.13,266.96 449.15,269.1 458.16,270.41 470.44,273.71 483.24,276.84 498.17,281.61 
		511.23,283.98 523.69,284.88 536.49,285.26 549.21,284.12 561.96,280.43 576.62,278.92 591.98,277.38 607.99,274.07 625.47,267.65 
		643.45,263.98 662.63,258.71 680.92,255.92 697.03,255.8 714.97,252.18 726.85,254.55 740.08,253.87 751.73,270.87 761.29,290.84 
		759.56,317.04 758.59,340.79 764.33,361.75 773.45,383 788.59,406.19 792.78,430.14 796.83,454.5 784.11,472.04 775.79,488.88 
		766.92,498.07 765.41,499.68 763.78,501.38 754.42,511.02 744.02,521 743.97,521.04 743.35,521.48 732.69,531.87 727.11,545.41 
		709.81,549.91 689.93,551.11 679.88,553.01 672.01,555.58 671.54,555.73 653.2,563.2 632.74,568.36 610.39,561.33 589.51,558.99 
		568.74,559.02 547.91,558.83 542.59,553.75 541.64,534.16 542.84,509.56 544.71,484.71 545.05,463.16 546.89,440.14 547.61,418.65 
		547.21,397.22 545.37,374.1 550.69,353.57 556.4,337.09 559.44,320.12 561.34,302.05 561.96,280.43 562,255.02 561.51,224.14 
		565.97,214.05 578.98,210.32 581.46,200.68 582.78,180.11 584.19,159.04 585.69,137.56 587.82,126.89 	"/>
	<polyline class="st1" points="584.01,78.57 585.24,80.99 586.87,84.19 591.58,94.44 591.45,95.19 599.94,111.66 605.3,114.4 	"/>
	<polyline class="st1" points="649.92,110.74 664.9,116.42 681.55,122.23 684.69,121.08 687.42,120.07 689.82,118.93 707.1,127.54 
		709.17,126.8 728.11,132.59 749.77,134.99 754.73,128.7 758.38,123.55 759.97,120.79 761.44,117.12 762.19,113.59 761.2,111.93 
		758.91,111.5 733.07,118.23 712.44,117.73 704.12,114 703.47,112.89 701.94,111.59 699.26,110.31 697.88,110.16 697.53,110.23 	"/>
	<polyline class="st1" points="409.03,653.69 407.66,651.42 400.25,639.12 	"/>
	<polyline class="st1" points="642.58,106.23 643.59,107.31 644.7,108.33 645.07,108.6 645.77,109.26 646.15,109.59 646.77,109.84 
		647.32,109.86 648.62,110.25 649.05,110.33 650.16,110.57 667.86,113.76 684.69,121.08 699.08,135.35 714.34,146.33 723.78,144.44 
		738.35,141.52 743.09,138.82 746.24,137.81 749.77,134.99 770.44,133.65 773.94,133.46 776.79,132.23 777.92,132.45 790.18,151.49 
		808.23,163.11 828.71,173.11 833.74,185.81 839.25,190.25 839.52,190.75 841.36,191.94 	"/>
	<polyline class="st1" points="607.41,708.56 593.01,714.69 591.81,714.47 590.61,713.16 589.03,711.43 587.35,709.59 
		586.73,708.92 579.92,703.15 579.16,702.9 567.06,698.98 564.34,693.54 561.85,685.76 560.68,668.32 560.07,648.38 557.46,641.68 
		553.98,638.72 550.83,632.24 549.34,616.8 550.14,591.92 549.98,572.01 547.91,558.83 	"/>
	<polyline class="st1" points="843.19,550.4 839.13,558.08 831.74,573.61 827.05,591.24 825.25,594.16 818.4,605.36 817.05,611.12 
		813.85,623.73 809.88,626.94 800.36,637.2 799.6,637.95 798.94,638.68 797.97,639.57 794.27,643.27 792.54,644.18 783.09,649.18 
		776.25,657.35 773.52,660.61 759.7,662.19 759.61,662.22 755.66,663.57 752.38,664.7 749.63,665.64 749.03,665.85 747.06,666.52 
		738.11,670.43 734.42,672.04 727.8,674.61 723.11,676.44 720.97,677.27 	"/>
	<polyline class="st1" points="419.49,656.4 417.65,653.76 410.32,643.22 400.25,639.12 397.53,636.27 389.77,628.14 389.18,627.52 
		379.16,624.51 375.92,623.05 	"/>
	<polyline class="st1" points="849.86,387.52 848.82,387.86 834.67,392.55 817.34,397.25 800.37,401.63 788.59,406.19 
		766.51,409.71 740.28,412.13 717.27,414.35 693.61,415.78 672.42,417.24 652.43,418.83 633.46,421.53 611.79,424.03 588.23,423.12 
		567.48,420.4 547.61,418.65 528.14,416.94 511.32,414.39 493.71,412.08 474.46,409.83 455.34,407.17 434.8,404.24 414.09,400.82 
		396.66,396.81 377.23,392.45 365.8,387.72 351.61,382.71 338.12,377.4 319.43,371.4 295.81,364.4 291.28,358.61 293.15,346.42 
		293.3,345.46 293.38,344.9 293.16,341.52 291.86,337.84 291.06,333.64 290.97,333.55 287.16,330.86 286.64,324.12 280.29,316.41 	
		"/>
	<polyline class="st1" points="696.66,109.96 696.75,109.99 696.82,110.02 696.82,110.94 699.71,112.5 703.04,113.75 709.21,117.65 
		712.21,119.83 713.43,121.11 735.78,120.29 736.13,121.14 759.97,120.79 778.63,130.86 	"/>
	<polyline class="st1" points="707.55,684.38 705.79,684.6 695.03,686.1 692.7,686.58 687.67,687.33 686.61,687.46 684.04,687.87 
		680.86,688.68 680.26,688.95 669.68,691.55 665.37,700.76 659.87,702.69 658.64,702.75 651.57,704.85 644.66,703.15 633.09,701.59 
		620.21,707.26 613.93,711.81 607.04,716.79 606.89,717.02 606.3,717.33 606.24,717.35 	"/>
	<polyline class="st1" points="403.19,571.03 399.3,557.43 398.82,555.75 390.99,540.95 	"/>
	<polyline class="st1" points="332.28,479.56 324.06,469.36 322.33,467.2 	"/>
	<polyline class="st1" points="619.5,103.95 621.97,101.47 631.6,91.79 632.93,90.46 	"/>
	<polyline class="st1" points="504.76,94.99 505,94.97 505.03,94.96 519.51,91.13 525.5,93.52 542.08,99.48 562.06,102.09 
		581.33,105.02 599.94,111.66 606.7,105.84 610.11,100.45 617.58,92.33 617.43,91.51 619.58,91.56 621.66,91.49 	"/>
	<polyline class="st1" points="542.27,692 533.91,694.87 528.51,696.73 515.71,696.89 507.93,693.67 500.7,687.82 	"/>
	<polyline class="st1" points="366.11,615.92 364.37,614.65 353.56,610.2 349.45,590.55 338.49,586.87 335.42,577.99 328.85,560.56 
		323.91,553.74 314.14,538.12 310.16,529.98 309.76,528.96 307.83,522.31 	"/>
	<polyline class="st1" points="699.98,112.14 700.68,112.61 701.67,112.34 708.36,111.07 729.88,106.75 754.19,100.05 759.95,102.8 
			"/>
	<polyline class="st1" points="591.86,118.12 597.63,112.99 599.94,111.66 605.84,98.09 611.32,91.55 612.95,91.88 615.21,91.82 	
		"/>
	<polyline class="st1" points="591.35,83.29 593.2,88.06 595.11,94.47 599.94,111.66 604.63,114.64 	"/>
	<polyline class="st1" points="592.75,117.9 597.61,113.18 599.94,111.66 602.35,96.63 605.97,90.41 	"/>
	<polyline class="st1" points="894.92,261.53 893.72,264.1 893.06,271.1 893.02,281.82 	"/>
	<polyline class="st1" points="826.69,597.62 825.92,598.73 823.93,603.23 821.57,608.04 815.78,619.82 813.85,623.73 
		800.76,627.07 785.2,627.85 	"/>
	<polyline class="st1" points="475.82,695.81 473.9,694.52 468.63,690.97 461.83,675.91 453.06,665.56 441.42,662.47 429.59,660.42 
		423.86,658.14 419.49,656.4 413.33,654.8 404.58,656.93 398.46,651.83 395.27,647.72 389.93,640.82 387.51,637.7 379.51,625.05 
		377.9,624.56 372.06,621.75 	"/>
	<polyline class="st1" points="644.12,110.3 645.27,111.82 650.82,119.14 651.99,120.68 652.57,121.38 663.6,134.75 	"/>
	<polyline class="st1" points="894.68,240.66 892.62,243.48 888.41,249.26 889.78,254.08 890.4,255.13 	"/>
	<polyline class="st1" points="377.24,156.81 384.51,154.35 387.19,153.43 389.22,153.39 391.23,150.33 393.25,147.27 
		414.77,146.76 	"/>
	<polyline class="st1" points="593.55,117.69 597.5,114.65 599.94,111.66 592.88,94.9 587.83,83.14 586.92,81.24 586.44,80.23 	"/>
	<polyline class="st1" points="389.22,153.39 392.01,153.32 393.31,152.59 407.55,149.85 	"/>
	<polyline class="st1" points="392.01,153.32 392.88,153.3 393.31,152.59 392.58,147.28 393.18,141.73 393.32,141.1 	"/>
	<polyline class="st1" points="335.29,269.44 337.32,267.75 344.53,261.76 351.13,256.27 	"/>
	<polyline class="st1" points="562.64,81.07 567.06,80.99 570.43,79.78 571.41,80.19 586.28,96.12 599.94,111.66 607.14,113.11 	"/>
	<polyline class="st1" points="595.04,117.32 597.56,113.82 599.94,111.66 602.35,96.63 603.58,89.78 	"/>
	<polyline class="st1" points="596.39,116.98 597.76,115.98 599.94,111.66 587.62,95.57 575.08,76.95 	"/>
	<polyline class="st1" points="643.45,84.16 646.25,87.6 648.49,89.48 648.33,90.22 653.53,95.33 654.57,96.19 	"/>
	<polyline class="st1" points="315.78,293.72 320.34,291.07 329.31,285.85 	"/>
	<polyline class="st1" points="588.87,81.33 589.18,81.58 589.15,81.7 589.46,82.7 593.98,94.68 599.94,111.66 604.8,114.58 	"/>
	<polyline class="st1" points="582.96,709.68 581.62,709.34 578.48,708.54 577.86,708.43 572.57,707.07 567.51,704.85 
		562.69,700.95 557.69,698.73 547.5,704.62 537.45,708.53 530.42,704.1 523.5,699.01 511.39,701.43 499.03,704.52 488.41,702.61 
		478.04,697.31 477.73,696.11 473.24,678.75 466.95,669.84 465.55,667.85 458.92,658.54 458.12,657.28 451.31,648.49 442.5,634.88 
		438.55,618.01 428.5,608.74 412.71,607.65 399.04,604.39 393.76,588.21 384.91,575.27 387.82,552.66 386.5,534.25 386.33,532.47 	
		"/>
	<polyline class="st1" points="578.48,708.54 578.02,708.43 577.94,708.41 577.77,708.46 572.92,709.09 566.68,706.68 
		560.87,708.71 554.53,710.86 545.71,710.73 536.83,710.47 528.38,712.68 518.64,710.31 509.11,706.79 499.03,704.52 488.99,701.26 
		483.14,686.47 473.24,678.75 461.83,675.91 450.08,674.53 441.42,662.47 433.75,649.1 426.27,635.76 419,622.28 412.71,607.65 
		411.52,587.74 405.09,573.71 404.74,572.53 	"/>
	<polyline class="st1" points="794.68,126.66 801.56,130.56 806.52,133.35 	"/>
	<polyline class="st1" points="697.99,169.65 699.37,170.07 701.88,170.32 710.54,169.24 730.34,169.67 740.79,181.11 
		743.65,184.23 753.79,182.76 762.85,181.51 769.26,182.33 776.41,180.97 781.79,180.54 789.34,176.52 793.66,175.13 797.53,173.2 
		802.14,169.44 808.23,163.11 809.99,160.54 813.17,155.44 815.4,150.05 813.83,148.67 	"/>
	<polyline class="st1" points="699.28,109.87 702.65,109.17 724.46,100.7 731.87,97.96 	"/>
	<polyline class="st1" points="579.21,74.65 579.32,74.85 582.43,80.57 585.32,85.88 589.57,94.75 599.94,111.66 606.13,113.87 	"/>
	<polyline class="st1" points="876.49,491.79 873.04,501.1 870.82,508.53 868.98,515.67 868.78,516.36 865.52,528.06 852.56,532.77 
			"/>
	<polyline class="st1" points="850.92,238.15 851.25,239.48 852.05,241.11 860.93,259.07 870.78,278.46 878.22,298.72 
		881.32,319.95 878.98,341.53 883.04,361.26 893.78,380.69 896.45,400.84 891.91,420.3 885.87,426.75 879.03,433.23 863.7,438.38 
		859.78,445.73 855.16,453.5 837.26,458.24 813.22,460.8 797.95,465.97 787.66,481.89 777.84,495.91 773.67,511.94 769.72,527.56 
		771.8,548.28 775.07,571.33 774.43,591.47 773.87,612.63 773.18,634.79 762.82,643.4 752.86,646.77 750.01,647.28 737.12,652.08 
		723.68,657.79 721.1,676.32 720.97,677.27 715.49,680.17 715.23,680.31 707.55,684.38 705.79,684.64 695.03,686.1 691.7,686.39 
		686.61,687.46 684.1,688.17 684.07,688.17 683.35,688.34 682.89,688.45 680.26,688.95 669.68,691.55 656.03,701.53 639.6,698.19 
		625.73,695.11 625.58,695.08 625.55,695.07 623.44,695.02 608.4,690.93 591.62,683.87 575.71,676.05 560.68,668.32 545.07,668.02 
		528.84,670.37 512.8,671.36 493.17,681.99 	"/>
	<polyline class="st1" points="496.68,92.32 496.88,92.41 504.7,94.97 505.56,94.55 516.45,86.14 519.96,83.42 521.75,83.77 
		521.84,83.81 523.93,84.47 526.62,85.07 531.07,86.03 536.86,85.46 543.32,83.88 545.97,81.95 549.67,79.26 554.25,81.23 
		567.16,87.11 583.71,98.64 599.94,111.66 609.06,111.02 610.98,110.22 	"/>
	<polyline class="st1" points="738.11,670.43 737.86,670.7 734.04,674.82 732.07,676.96 723.11,676.44 	"/>
	<polyline class="st1" points="551.8,76.73 557.75,79.75 562.64,81.07 569.94,83.04 585.87,96.41 587.16,95.78 588.09,95.35 
		589.06,94.85 590.09,94.64 591.16,94.64 592.27,94.78 593.4,94.79 594.55,94.56 595.73,94.56 596.92,94.51 598.13,94.86 
		599.34,95.26 600.55,95.83 601.75,96.27 602.94,96.98 604.12,97.54 605.27,97.87 606.41,98.31 607.51,98.88 608.59,99.41 
		609.62,100.05 610.61,100.86 611.54,101.71 612.43,102.66 613.26,103.7 614.04,104.62 614.76,105.56 615.41,106.49 616.42,107.04 
		619.71,104.4 622.61,102.84 633.81,91.97 635.56,90.16 636.01,89.68 636.74,89.67 637.46,91.02 637.51,94.71 637.87,97.44 
		638.13,99.75 638.19,102.32 638.15,104.56 638.04,105.8 	"/>
</g>
</svg>
