<?xml version="1.0" encoding="utf-8"?>
<!-- Generator: Adobe Illustrator 24.2.3, SVG Export Plug-In . SVG Version: 6.00 Build 0)  -->
<svg version="1.1" id="Layer_1" xmlns="http://www.w3.org/2000/svg" xmlns:xlink="http://www.w3.org/1999/xlink" x="0px" y="0px"
	 viewBox="0 0 1184 792" style="enable-background:new 0 0 1184 792;" xml:space="preserve">
<style type="text/css">
	.st0{fill:#FFFFFF;}
	.st1{fill:none;stroke:#FFFFFF;stroke-linecap:round;stroke-linejoin:round;}
	.st2{fill:none;stroke:#FFFFFF;stroke-miterlimit:10;}
	.st3{fill:none;stroke:#FFFFFF;stroke-width:0.5;stroke-miterlimit:10;}
	.st4{fill:none;stroke:#FFFFFF;stroke-width:0.5;stroke-linecap:round;stroke-linejoin:round;}
	.st5{stroke:#FFFFFF;stroke-miterlimit:10;}
</style>
<g>
	<rect width="1184" height="792"/>
</g>
<g>
	<line class="st1" x1="803.61" y1="405" x2="729.23" y2="402.52"/>
	<line class="st1" x1="654.21" y1="519.75" x2="679.59" y2="588.3"/>
	<line class="st1" x1="638.43" y1="508.67" x2="657.59" y2="574.71"/>
	<line class="st1" x1="690.09" y1="559.2" x2="700.59" y2="599.02"/>
	<polyline class="st1" points="842.96,551.03 785.01,532.04 767.08,513.45 767.73,507.39 768.37,500.79 769,493.68 769.53,486.98 
		768.71,486.71 760.46,483.83 750.33,480.36 	"/>
	<polyline class="st1" points="829.82,570.98 785.01,532.04 758.91,528.49 	"/>
	<polyline class="st1" points="493.92,513.68 523.39,463.29 523.21,447.57 523.17,431.8 	"/>
	<polyline class="st1" points="742.94,556.55 695.66,527.72 669.65,516.98 654.21,519.75 	"/>
	<polyline class="st1" points="854.71,530.85 809.72,524.02 767.08,513.45 757.43,522.23 757.36,522.29 756.24,523.19 	"/>
	<polyline class="st1" points="492.82,454.87 449.4,465.41 429.12,462.84 410,459.98 392.13,456.86 375.61,453.51 360.51,449.96 
		346.87,446.24 340.69,444.28 334.73,442.38 	"/>
	<polyline class="st1" points="511.02,416.84 470.48,422.19 449.06,421.05 428.68,419.8 409.48,418.45 391.54,417.03 374.97,415.53 
		359.82,413.98 346.16,412.38 334.03,410.75 323.42,409.1 314.35,407.44 306.81,405.78 300.78,404.13 296.21,402.5 293.07,400.89 	
		"/>
	<polyline class="st1" points="313.09,486.3 324.05,481.03 324.89,479.88 325.94,479.31 326.16,479.19 326.73,478.88 338.11,472.69 
		344.57,469.18 347.98,467.33 	"/>
	<line class="st1" x1="333.92" y1="251.05" x2="369.31" y2="265.23"/>
	<polyline class="st1" points="779.88,500.44 809.72,524.02 842.96,551.03 	"/>
	<polyline class="st1" points="329.9,434.32 299.91,434.24 297.96,434.25 297.54,434.25 294.69,434.22 	"/>
	<polyline class="st1" points="786.6,329.81 819.7,324.48 833.65,330.35 846.13,336.39 	"/>
	<polyline class="st1" points="787.52,345.43 819.84,340.03 833.83,344.79 846.34,349.68 857.33,354.67 866.82,359.71 	"/>
	<polyline class="st1" points="787.39,359.97 819.86,355.97 833.88,359.59 846.41,363.29 857.43,367.06 866.92,370.86 874.9,374.67 
			"/>
	<polyline class="st1" points="328.66,432.25 297.3,431.48 294.03,426.12 293.54,417.84 293.22,409.41 291.44,406.57 291.31,399.32 
		291.12,391.89 291.04,385.72 291.52,384.72 293.31,383.73 296.49,382.78 301.09,381.85 307.17,380.97 314.75,380.13 323.86,379.35 
		334.5,378.63 346.69,377.97 360.39,377.4 375.57,376.9 392.19,376.49 410.17,376.18 429.42,375.97 449.84,375.86 494.85,380.79 	
		"/>
	<line class="st1" x1="834.36" y1="231.01" x2="811.9" y2="248.21"/>
	<polyline class="st1" points="767.25,201.77 771.66,207.08 782.54,220.18 784.98,223.12 785.22,223.42 787.54,224.8 801.46,233.56 
		802.53,235.05 803.5,236.42 804.09,237.25 808.64,243.64 810.12,245.71 810.88,246.78 811.9,248.21 817.26,255.74 817.72,256.09 
		821.03,258.62 821.91,259.29 822.24,259.55 825.82,258.14 831.43,261.2 832.33,261.68 842.53,267.23 843.39,277.19 844.16,287.84 
		844.82,299.15 855.79,308.55 856.35,319.44 865.85,327.96 866.28,338.21 874.28,345.69 874.59,355.11 881.1,361.42 881.29,369.85 
		886.32,374.89 886.41,382.23 886.44,382.26 890.01,385.95 890.01,385.98 890.01,389.5 890.02,392.1 	"/>
	<polyline class="st1" points="801.01,474.06 774.62,478.89 739.29,474.45 	"/>
	<polyline class="st1" points="539.26,432.33 531.17,429.49 515.88,424.12 	"/>
	<polyline class="st1" points="515.88,424.12 516.07,410.46 516.22,400.17 516.77,376.18 517.52,352.33 518.48,328.8 519.63,305.78 
		520.96,283.43 522.45,261.91 524.1,241.36 525.88,221.92 527.79,203.7 529.8,186.78 531.89,171.25 534.06,157.17 536.28,144.57 
		538.54,133.48 540.82,123.91 543.1,115.85 	"/>
	<polyline class="st1" points="539.34,448.82 539.52,424.89 539.89,400.72 540.45,376.51 541.18,352.44 542.08,328.69 
		543.15,305.46 544.36,282.91 545.72,261.2 547.21,240.48 548.81,220.87 550.52,202.5 552.31,185.45 554.16,169.8 556.08,155.62 
		558.03,142.93 560.02,131.77 562.01,122.15 564.01,114.05 566,107.46 567.96,102.35 569.9,98.68 571.8,96.4 591.66,95.86 
		611.58,96.61 	"/>
	<polyline class="st1" points="315.47,480.07 319.59,478.73 321.81,478 338.11,472.69 	"/>
	<polyline class="st1" points="563.24,473.15 563.33,449.54 563.57,425.51 563.97,401.25 564.52,376.94 565.22,352.78 
		566.06,328.94 567.04,305.62 568.14,282.98 569.35,261.19 570.67,240.39 572.08,220.71 573.56,202.26 575.11,185.15 576.72,169.45 
		578.37,155.22 580.04,142.5 581.73,131.3 583.43,121.65 585.12,113.53 586.8,106.93 588.46,101.81 590.08,98.14 591.66,95.86 
		593.2,94.93 612.19,96.14 631.44,98.66 	"/>
	<polyline class="st1" points="587.35,473.56 587.53,449.98 587.83,425.99 588.26,401.76 588.81,377.49 589.47,353.35 
		590.25,329.55 591.12,306.25 592.1,283.64 593.16,261.87 594.3,241.09 595.5,221.43 596.76,203.01 598.07,185.91 599.41,170.22 
		600.78,156 602.17,143.28 603.55,132.09 605.57,122.49 605.98,121.48 	"/>
	<polyline class="st1" points="493.66,375.96 493.84,370.55 494.44,352.45 495.45,329.26 496.67,306.56 498.09,284.52 499.7,263.3 
		501.49,243.03 503.44,223.84 505.53,205.85 507.74,189.14 510.05,173.79 512.45,159.87 514.91,147.4 517.42,136.41 519.97,126.92 
		522.52,118.92 	"/>
	<line class="st1" x1="329.44" y1="458.2" x2="305.94" y2="459.11"/>
	<polyline class="st1" points="493.66,375.96 516.77,376.18 540.45,376.51 564.52,376.94 588.81,377.49 613.12,378.13 
		637.26,378.87 661.04,379.7 684.29,380.62 706.83,381.61 728.52,382.66 	"/>
	<polyline class="st1" points="657.59,574.71 634.73,577.17 611.57,578.73 588.28,579.38 565.02,579.12 541.96,577.95 
		519.25,575.88 497.06,572.93 475.54,569.14 454.82,564.54 	"/>
	<polyline class="st1" points="611.33,496.4 611.5,473.57 611.76,450.15 612.13,426.32 612.58,402.25 613.12,378.13 613.74,354.15 
		614.45,330.5 615.22,307.36 616.07,284.88 616.97,263.25 617.92,242.59 618.92,223.04 619.95,204.72 621.01,187.71 622.08,172.1 
		623.17,157.94 624.26,145.27 625.34,134.12 626.53,124.51 628.51,109.79 629.52,104.66 630.5,100.97 631.44,98.66 632.35,97.69 
		651.74,100.98 670.61,106.6 	"/>
	<polyline class="st1" points="679.59,588.3 657.4,591.97 634.78,594.68 611.86,596.43 588.8,597.19 565.78,596.95 542.95,595.72 
		520.47,593.52 498.49,590.37 477.15,586.29 456.6,581.33 436.95,575.54 418.32,568.97 400.81,561.68 384.5,553.74 369.46,545.21 
		355.75,536.16 343.42,526.65 341.35,514.2 330.49,505.15 321.07,495.83 316.63,490.53 313.09,486.3 	"/>
	<polyline class="st1" points="472.27,444.41 470.48,422.19 471.9,399.02 	"/>
	<polyline class="st1" points="862.21,283.83 862.7,284.93 867.81,296.29 868.6,298.07 871.31,304.08 871.74,305.2 875.12,313.85 
		877.51,319.98 877.72,320.5 878.8,323.27 	"/>
	<polyline class="st1" points="493.92,513.68 471.94,510.93 450.82,507.64 430.71,503.85 411.71,499.58 393.94,494.89 
		377.48,489.81 362.4,484.39 353.04,480.47 348.75,478.68 	"/>
	<polyline class="st1" points="700.59,599.02 679.21,603.96 657.26,607.92 634.88,610.87 612.22,612.78 589.43,613.63 
		566.66,613.42 544.09,612.14 521.84,609.82 500.08,606.48 478.94,602.16 458.56,596.88 439.06,590.71 	"/>
	<polyline class="st1" points="700.02,613.04 678.87,618.29 657.17,622.51 635.05,625.66 612.66,627.71 590.14,628.64 
		567.65,628.45 545.34,627.14 523.35,624.72 501.82,621.22 480.9,616.68 460.7,611.13 441.35,604.62 422.95,597.22 405.6,588.98 
		403.11,575.9 386.84,567.39 371.82,558.25 358.08,548.53 345.69,538.31 343.42,526.65 332.48,516.77 322.96,506.58 314.85,496.14 
		314.08,491.83 314.04,491.61 313.09,486.3 	"/>
	<polyline class="st1" points="357.57,266.15 369.31,265.23 379.2,264.45 384.69,266.69 	"/>
	<polyline class="st1" points="604.94,122.43 606.2,122.55 626.42,124.49 	"/>
	<polyline class="st1" points="449,136.97 470.44,136.32 482.78,128.75 	"/>
	<polyline class="st1" points="690.9,508.1 669.87,504.27 654.34,506.72 638.43,508.67 	"/>
	<polyline class="st1" points="719.71,619.16 699.46,625.72 678.55,631.25 657.11,635.69 635.27,639.01 613.16,641.18 
		590.94,642.18 568.74,642.01 546.7,640.67 524.98,638.17 503.7,634.54 483,629.81 462.99,624.02 443.8,617.23 425.53,609.5 
		408.27,600.88 405.6,588.98 389.38,579.98 386.84,567.39 384.5,553.74 392.53,538.61 	"/>
	<polyline class="st1" points="718.94,630.21 698.92,637.05 678.27,642.8 657.1,647.43 635.54,650.89 613.73,653.16 591.81,654.21 
		569.91,654.06 548.16,652.69 526.71,650.13 505.69,646.39 485.22,641.51 465.41,635.53 446.39,628.51 443.8,617.23 441.35,604.62 
		439.06,590.71 420.54,583.69 403.11,575.9 400.81,561.68 398.72,546.39 396.87,530.11 395.27,512.9 393.94,494.89 392.89,476.17 
		392.13,456.86 391.68,437.1 391.54,417.03 391.71,396.78 392.19,376.49 392.98,356.33 394.07,336.42 	"/>
	<polyline class="st1" points="718.19,639.95 698.41,647 678.01,652.93 657.12,657.7 635.86,661.27 614.36,663.62 592.75,664.72 
		571.15,664.58 549.71,663.2 528.54,660.58 507.78,656.76 487.55,651.77 	"/>
	<polyline class="st1" points="689.47,130.22 709.25,137.26 728.4,145.45 728.49,145.49 735.38,148.96 746.81,154.72 747.42,162.27 
		740.69,173.56 	"/>
	<polyline class="st1" points="471,168.56 491.39,163.67 512.45,159.87 534.06,157.17 556.08,155.62 578.37,155.22 600.78,156 
		623.17,157.94 645.38,161.03 667.28,165.25 688.71,170.57 709.55,176.93 729.67,184.3 748.94,192.6 767.25,201.77 771.05,207.9 
		777.97,219.06 780.95,220.87 785.22,223.34 786.8,224.28 787.54,224.8 801.46,233.56 802.19,245.67 809.15,250.32 817.26,255.74 
		817.32,256.69 817.96,268.03 818.56,281.12 819.06,294.94 819.44,309.42 819.7,324.48 819.84,340.03 819.86,355.97 819.76,372.2 
		819.53,388.61 819.18,405.1 818.71,421.56 818.12,437.89 817.43,453.97 816.62,469.71 815.71,485 814.72,499.75 	"/>
	<polyline class="st1" points="434.47,541.99 433.35,541.72 414.52,536.2 396.87,530.11 388.08,526.55 380.48,523.48 	"/>
	<polyline class="st1" points="724.89,467.06 704.73,469.72 689.59,470.75 682.28,471.25 672.73,471.96 659.14,472.41 
		635.49,473.19 611.5,473.57 589.17,473.56 587.35,473.56 	"/>
	<polyline class="st1" points="690.9,508.1 695.66,527.72 690.38,533.84 684.04,536.27 	"/>
	<polyline class="st1" points="657.78,687.44 638.06,691.18 618.15,693.65 598.15,694.84 578.15,694.74 	"/>
	<polyline class="st1" points="447.92,637.9 431.1,630.21 414.03,621.02 413.48,620.68 397.97,610.94 	"/>
	<polyline class="st1" points="599.31,696.61 579.63,696.52 578.93,696.41 567.26,694.69 558.25,693.36 547.74,690.56 547.53,690.5 
		546.89,690.33 536.48,687.55 530,686.26 525.58,685.37 524.75,685.21 516.82,683.63 514.49,679.06 506.3,676.9 495,673.91 
		493.9,672.23 491.35,667.57 490.16,666.52 488.01,665.19 483.08,662.12 483,662.08 470.58,654.35 467.95,645.64 461.98,643.36 
		456.73,641.35 449.1,638.44 447.92,637.9 434.05,638.61 433.47,638.29 417.08,629.22 414.03,621.02 411.08,611.57 408.27,600.88 
		396.33,593.92 392.1,591.46 389.38,579.98 385.73,576.66 381.64,572.95 380.29,571.72 376.69,568.45 371.82,558.25 369.46,545.21 
		385.21,529.43 	"/>
	<polyline class="st1" points="777.79,570.49 759.97,578.82 748.24,583.53 741.09,586.4 	"/>
	<line class="st1" x1="301.32" y1="438.5" x2="320.57" y2="434.64"/>
	<polyline class="st1" points="775.73,157.47 776.95,158.79 777.82,159.83 778.17,160.98 779.01,165.39 779.67,165.92 
		794.42,177.79 795.59,182.54 795.84,182.77 810.09,195.66 811.3,201.28 811.54,201.53 824.76,214.91 825.04,215.39 830.55,224.62 
		834.36,231.01 	"/>
	<polyline class="st1" points="413.44,314.05 432.68,311.57 453.04,309.47 474.42,307.8 496.67,306.56 519.63,305.78 543.15,305.46 
		567.04,305.62 591.12,306.25 615.22,307.36 639.15,308.92 662.71,310.93 685.75,313.37 708.09,316.22 729.57,319.44 750.06,323.01 
		769.43,326.88 784.02,330.22 787.58,331.04 	"/>
	<polyline class="st1" points="804.88,183.08 806.08,184.49 806.83,185.41 807.86,187.14 808.83,191.04 810.09,195.66 
		810.36,195.95 823.49,209.52 824.25,210.42 835.74,224.05 846.81,239.15 856.91,254.54 861.39,262.27 864.03,267.23 865.23,270.73 
		866.95,274.56 867.09,274.88 872.55,287.04 872.98,288.14 875.26,294.78 879.52,306.83 880.01,308.53 881.09,312.33 881.36,314.12 
		885.64,329.67 886.32,333.49 886.95,337.62 887.79,342 888.07,342.03 889.25,347.76 889.76,351.09 	"/>
	<line class="st1" x1="323.87" y1="456.83" x2="304.63" y2="457.55"/>
	<polyline class="st1" points="406.21,229.68 411.11,227.94 424.07,223.32 443.04,217.71 463.02,212.89 483.9,208.93 505.53,205.85 
		527.79,203.7 550.52,202.5 573.56,202.26 596.76,203.01 619.95,204.72 642.96,207.39 665.63,210.99 687.81,215.5 709.34,220.87 
		730.08,227.05 749.91,233.99 768.71,241.62 786.38,249.89 802.82,258.71 803.35,272.62 818.56,281.12 832.4,289.98 844.82,299.15 
		845.37,311.05 856.35,319.44 856.79,330.79 857.12,342.56 857.33,354.67 857.43,367.06 857.4,379.65 857.26,392.38 856.99,405.16 
		856.6,417.92 856.1,430.58 855.48,443.07 854.76,455.31 853.93,467.24 853.01,478.79 851.99,489.89 850.89,500.49 841.59,508.06 
		839.49,509.77 828.04,506.08 827.84,506.21 811.99,501.04 793.35,494.84 775.5,488.75 769.53,486.98 768.71,486.71 761.01,483.92 
		760.45,483.99 749.79,490.11 749.22,499.37 748.64,508.09 751.5,513.78 754.03,518.8 756.24,523.19 757.07,524.85 757.18,525.05 
		758.91,528.49 762.29,535.2 763.56,537.28 767.46,546.97 768.18,547.98 777.79,570.49 776.58,582.68 775.66,583.14 766.47,587.74 
		758.87,591.55 753.13,589.88 741.09,586.4 726.4,573.49 721.34,569.04 721.15,568.88 718.28,566.35 714.77,563.27 710.62,559.62 
		710.6,559.6 710.23,559.28 705.42,555.06 704.13,553.92 701.41,551.53 700.26,550.52 698.97,549.39 696.5,547.22 684.04,536.27 	
		"/>
	<line class="st1" x1="315.47" y1="480.07" x2="310.02" y2="462.07"/>
	<polyline class="st1" points="769.47,308.37 769.43,326.88 769.29,345.91 769.06,365.3 761.85,385.41 715.97,402.37 	"/>
	<polyline class="st1" points="399.04,279.6 417,275.2 436.16,271.34 456.42,268.04 477.64,265.35 499.7,263.3 522.45,261.91 
		545.72,261.2 569.35,261.19 593.16,261.87 616.97,263.25 640.6,265.31 663.88,268.03 686.64,271.39 708.72,275.35 729.96,279.89 
		750.24,284.94 769.42,290.47 	"/>
	<polyline class="st1" points="787.5,349.1 769.29,345.91 749.85,342.91 729.28,340.14 707.71,337.62 685.27,335.38 662.14,333.43 
		638.47,331.8 614.45,330.5 590.25,329.55 566.06,328.94 542.08,328.69 518.48,328.8 495.45,329.26 473.14,330.06 451.72,331.19 
		431.32,332.64 426.73,327.88 422.79,323.78 413.44,314.05 409.71,310.37 409.52,310.17 397.11,297.92 	"/>
	<polyline class="st1" points="862.8,264.34 863.94,266.95 864.61,268.51 867.45,274.82 867.7,275.34 870.32,281.21 871.45,283.86 
		872.71,287.41 872.98,288.14 875.26,294.39 877.61,300.76 878.59,303.57 	"/>
	<polyline class="st1" points="397.11,297.92 402.21,296.89 415.09,294.28 434.3,291.09 454.62,288.37 475.93,286.18 498.09,284.52 
		520.96,283.43 544.36,282.91 568.14,282.98 592.1,283.64 616.07,284.88 639.86,286.7 663.3,289.08 686.21,291.99 708.42,295.42 
		729.8,299.31 750.19,303.64 769.47,308.37 772.8,319.77 777.71,323.52 786.07,329.89 787.58,331.04 787.52,345.43 787.5,349.1 
		787.39,359.97 787.32,367.51 779.53,375.06 768.42,385.85 766.97,387.25 729.23,402.52 715.97,402.37 701.95,402.2 696.52,402.49 
		696.05,403.21 692.28,408.97 687.01,417.02 675.98,417.77 	"/>
	<line class="st1" x1="315.47" y1="480.07" x2="311.41" y2="462.48"/>
	<polyline class="st1" points="454.82,564.54 453.26,546.6 451.92,527.6 450.82,507.64 449.98,486.87 449.4,465.41 449.09,443.41 
		449.06,421.05 449.31,398.47 449.84,375.86 450.64,353.37 451.72,331.19 453.04,309.47 454.62,288.37 456.42,268.04 458.43,248.6 
		460.64,230.19 463.02,212.89 465.56,196.81 468.23,182.01 471,168.56 	"/>
	<polyline class="st1" points="386.94,251.76 389.05,250.95 403.61,245.38 421.51,239.62 440.56,234.54 460.64,230.19 
		481.65,226.61 503.44,223.84 525.88,221.92 548.81,220.87 572.08,220.71 595.5,221.43 618.92,223.04 642.16,225.53 665.06,228.87 
		687.45,233.03 709.18,237.97 730.11,243.65 750.1,250.01 769.04,257 786.82,264.56 803.35,272.62 	"/>
	<polyline class="st1" points="803.61,405 803.12,422.61 802.52,440.06 801.81,457.25 801.01,474.06 	"/>
	<polyline class="st1" points="384.53,267.71 385.99,267.22 387.76,266.61 401.21,262.05 419.15,256.95 438.26,252.45 458.43,248.6 
		479.56,245.45 501.49,243.03 524.1,241.36 547.21,240.48 570.67,240.39 594.3,241.09 617.92,242.59 641.37,244.87 664.47,247.91 
		687.06,251.69 708.97,256.17 730.07,261.29 750.21,267.03 769.27,273.32 787.16,280.11 803.78,287.34 819.06,294.94 832.93,302.87 
		845.37,311.05 845.81,323.49 856.79,330.79 866.28,338.21 866.61,348.81 874.59,355.11 874.8,364.78 881.29,369.85 881.39,378.46 
		881.4,387.2 881.31,396.02 881.12,404.88 880.84,413.72 880.47,422.5 880.01,431.17 873.33,435.2 872.72,444.98 872.01,454.52 
		863.71,460.94 853.93,467.24 842.66,473.38 841.69,486.04 828.92,493.04 814.72,499.75 791.72,492.44 771.03,485.09 763.47,482.56 
		753.22,479.12 739.29,474.45 726.89,478.44 713.71,482.12 699.8,485.44 685.25,488.38 670.12,490.91 654.51,493.03 638.51,494.7 
		622.22,495.91 611.33,496.4 611.29,496.41 605.74,496.66 589.17,496.93 571.43,502.6 540.41,538.69 517.31,536.93 494.77,534.48 
		472.92,531.36 451.92,527.6 431.9,523.24 412.99,518.33 395.27,512.9 378.84,507.02 363.78,500.74 350.46,494.27 350.12,494.1 
		349.08,482.37 348.75,478.68 348.26,471.36 348.21,470.74 347.98,467.33 347.67,462.69 346.03,460.13 345.94,459.98 345.58,459.41 
		343.94,456.84 340.45,451.37 339.94,450.57 339.71,450.2 338.83,448.83 336.95,445.87 335.45,443.51 334.73,442.38 330.18,434.79 
		329.9,434.32 328.96,432.76 328.66,432.25 328.16,431.42 327.02,429.52 323.72,423.92 323.63,423.86 323.35,423.37 321.01,419.23 
		308.78,418.24 307.01,418.1 300.96,415.19 296.37,412.29 293.22,409.41 293.07,400.89 291.31,399.32 290.87,397.79 291.12,391.89 
		291.28,385.22 291.31,379.72 291.84,377.45 293.7,375.19 296.93,372.96 301.59,370.76 307.71,368.62 315.34,366.54 324.49,364.54 
		335.18,362.64 347.4,360.85 361.13,359.19 376.34,357.68 392.98,356.33 410.97,355.15 430.23,354.16 450.64,353.37 472.1,352.8 
		494.44,352.45 517.52,352.33 541.18,352.44 565.22,352.78 589.47,353.35 613.74,354.15 637.84,355.18 661.58,356.41 684.79,357.85 
		707.29,359.47 728.93,361.27 743.7,364.48 769.06,365.3 787.32,367.51 	"/>
	<polyline class="st1" points="742.72,432.05 728.18,441.61 727.77,454.24 727.34,466.54 726.89,478.44 726.42,489.89 
		725.94,500.81 728.21,519.47 732.07,524.83 761.04,565 759.97,578.82 758.87,591.55 	"/>
	<polyline class="st1" points="381.16,219.63 381.27,219.56 387.48,215.19 395.33,209.67 401.15,206.81 411.95,201.5 429.7,194.12 
		432.73,181.35 435.85,169.85 454.43,162.66 473.87,156.48 494.07,151.38 514.91,147.4 536.28,144.57 558.03,142.93 580.04,142.5 
		602.17,143.28 624.26,145.27 646.18,148.46 667.79,152.82 688.95,158.33 709.54,164.93 729.42,172.58 738.76,176.81 748.48,181.22 
			"/>
	<polyline class="st1" points="362.4,576.36 353.6,568.04 349.82,563.88 342.3,555.6 341.71,554.84 332.29,542.69 331.66,541.73 
		323.59,529.39 322.89,528.11 316.06,515.82 312.25,507.44 313.33,505.33 311.89,501.8 	"/>
	<polyline class="st1" points="840.7,258.51 845.12,263.08 852.58,270.77 853.52,279.27 853.68,279.47 863.11,291.57 863.94,299.89 
		864.08,300.1 872.08,311.53 872.77,319.46 872.89,319.67 874.14,321.69 879.43,330.23 879.97,337.56 880.17,337.94 882.54,342.39 
		882.97,343.2 885.15,347.31 885.56,353.87 885.66,354.22 886.83,358.36 887.98,362.48 888.2,363.25 888.6,364.66 889.57,368.1 	"/>
	<polyline class="st1" points="374.71,516.07 358.66,520.27 341.35,514.2 	"/>
	<polyline class="st1" points="380.48,523.48 378.84,507.02 377.48,489.81 376.4,471.93 375.61,453.51 375.13,434.67 374.97,415.53 
		375.11,396.23 375.57,376.9 376.34,357.68 377.42,338.7 387.98,323.39 	"/>
	<polyline class="st1" points="676.34,424.11 660.03,426.5 636.25,426.49 612.13,426.32 587.83,425.99 563.57,425.51 539.52,424.89 
		515.88,424.12 	"/>
	<polyline class="st1" points="347.67,462.69 346.87,446.24 346.36,429.44 346.16,412.38 346.27,395.19 346.69,377.97 347.4,360.85 
		348.41,343.94 349.72,327.34 351.3,311.16 353.14,295.51 	"/>
	<polyline class="st1" points="555.64,465.41 539.39,464.51 523.39,463.29 471.2,489.65 449.98,486.87 429.78,483.67 410.71,480.09 
		392.89,476.17 376.4,471.93 361.31,467.43 353.06,464.56 347.67,462.69 	"/>
	<polyline class="st1" points="330.35,248.81 338.93,236.57 339.68,235.51 345.13,228.9 350.29,222.66 	"/>
	<polyline class="st1" points="852.58,270.77 852.75,271 855.11,274.2 858.49,278.78 862.21,283.83 863.11,291.57 863.27,291.81 
		866.39,296.57 867.68,298.54 871.31,304.08 872.08,311.53 872.21,311.77 873.27,313.61 876.95,320.05 877.29,320.64 878.8,323.27 
		879.43,330.23 879.55,330.61 879.78,331.28 881.98,337.85 883.48,342.33 883.71,343.02 885.15,347.31 	"/>
	<polyline class="st1" points="372.55,601.88 374.42,599.99 375.63,598.3 383.52,587.47 	"/>
	<polyline class="st1" points="334.73,442.38 334.23,426.68 334.03,410.75 334.12,394.7 334.5,378.63 335.18,362.64 336.15,346.84 
		337.4,331.33 338.92,316.2 	"/>
	<polyline class="st1" points="315.58,276.48 317.28,272.96 321.24,264.66 322.08,262.9 329.48,250.29 	"/>
	<polyline class="st1" points="379.27,572.31 366.18,579.97 365.61,580.27 364.6,580.56 359.59,583.19 	"/>
	<polyline class="st1" points="803.35,272.62 803.78,287.34 804.1,302.77 780.08,321.66 	"/>
	<polyline class="st1" points="879.15,482.53 878.64,483.97 872.96,496.41 872.46,497.51 865.12,510.57 864.93,510.9 860.53,517.41 
		856.04,524.06 	"/>
	<polyline class="st1" points="886.98,456.71 883.53,470.45 882.63,474.31 881.32,478.09 878.25,486.94 877.93,488.99 
		876.25,494.45 870.83,506.37 870.43,507.29 870.17,507.9 863.05,521.38 862.41,522.59 861.1,527.58 858.71,531.46 852.21,542.02 
		851.93,542.48 850.51,547.28 846.95,552.33 840.33,561.71 840.01,562.16 831.94,572.05 828.31,576.51 826.78,581.19 816.96,591.85 
		813.91,595.16 	"/>
	<polyline class="st1" points="842.66,473.38 829.91,479.32 815.71,485 774.62,478.89 727.34,466.54 725.38,467 724.9,467.11 
		724.73,467.15 	"/>
	<line class="st1" x1="317.27" y1="455.22" x2="303.35" y2="455.72"/>
	<polyline class="st1" points="718.53,443.78 705.29,448.09 682.78,449 659.57,449.66 635.84,450.04 611.76,450.15 587.53,449.98 
		563.33,449.54 539.34,448.82 	"/>
	<polyline class="st1" points="409,215.03 411.95,201.5 415.04,189.14 418.24,178 421.54,168.09 422.58,166.87 439.07,159.65 
		457.52,152.21 460.67,143.13 471.51,139.41 473.11,138.86 479.78,136.58 482.78,128.75 491.44,126.32 502.38,123.23 	"/>
	<polyline class="st1" points="715.97,402.37 715.64,416.2 715.29,429.92 715,440.78 	"/>
	<polyline class="st1" points="785.84,236.15 786.38,249.89 786.82,264.56 787.16,280.11 778,301.3 774.3,314.42 780.08,321.66 
		786.6,329.81 787.58,331.04 	"/>
	<polyline class="st1" points="685.57,474.87 685.25,488.38 690.9,508.1 721.3,518.68 729.96,533.83 742.94,556.55 742.03,572.02 
		741.09,586.4 	"/>
	<polyline class="st1" points="338.92,316.2 351.3,311.16 365.23,306.43 397.4,316.13 422.79,323.78 	"/>
	<polyline class="st1" points="846.13,336.39 846.34,349.68 846.41,363.29 846.37,377.13 846.2,391.13 845.9,405.18 845.48,419.21 
		844.95,433.13 844.29,446.85 843.53,460.29 842.66,473.38 	"/>
	<polyline class="st1" points="367.16,591.64 370.12,587.53 374.86,580.97 377.06,578.12 	"/>
	<polyline class="st1" points="729.23,402.52 728.91,415.68 742.72,432.05 	"/>
	<polyline class="st1" points="749.79,490.11 738.27,495.65 725.94,500.81 	"/>
	<polyline class="st1" points="307.01,418.1 306.81,405.78 306.87,393.38 307.17,380.97 307.71,368.62 308.5,356.4 309.52,344.39 
		310.77,332.65 318.65,326.99 320.24,314.48 329.73,307.9 340.7,301.56 342.72,287.48 355.24,280.48 397.4,295.21 	"/>
	<polyline class="st1" points="336.18,459.22 333.42,459.17 329.44,458.2 323.87,456.83 317.27,455.22 313.63,454.33 300.92,451.22 
			"/>
	<line class="st1" x1="313.63" y1="454.33" x2="302.11" y2="453.6"/>
	<polyline class="st1" points="748.48,181.22 748.94,192.6 749.33,205.22 749.66,219.03 749.91,233.99 750.1,250.01 750.21,267.03 
		750.24,284.94 750.19,303.64 750.06,323.01 749.85,342.91 743.7,364.48 728.57,379.85 	"/>
	<polyline class="st1" points="548.07,115.42 547.65,104.19 549.88,100.52 552.07,98.23 572.14,95.99 573.64,95.46 	"/>
	<polyline class="st1" points="398.44,197.78 399.44,194.48 401.68,187.03 418.24,178 435.85,169.85 439.07,159.65 442.34,150.78 
		453.47,146.13 460.67,143.13 	"/>
	<polyline class="st1" points="866.82,359.71 866.92,370.86 866.91,382.18 866.79,393.62 866.55,405.1 866.19,416.56 865.73,427.95 
		865.16,439.18 864.49,450.19 854.76,455.31 843.53,460.29 830.81,465.1 816.62,469.71 801.01,474.06 727.77,454.24 721.69,455.38 	
		"/>
	<polyline class="st1" points="300.96,415.19 300.78,404.13 300.82,393 301.09,381.85 301.59,370.76 302.3,359.79 303.23,348.99 
		309.52,344.39 317.3,339.89 326.59,335.53 337.4,331.33 349.72,327.34 363.53,323.58 387.98,323.39 431.21,334.66 	"/>
	<polyline class="st1" points="339.82,277.84 329.34,274.59 324.97,263.18 333.92,251.05 336.74,242.89 339.68,235.51 342.8,228.15 
		345.79,223.17 348.94,218.23 352.13,214.12 358.59,206.01 359.35,205.05 360.36,203.78 363.35,200.03 367.38,195.63 373.65,188.81 
		375.68,186.6 379.75,182.63 387.47,175.44 389.4,173.49 392.59,170.35 	"/>
	<polyline class="st1" points="739.29,474.45 738.79,485.29 738.27,495.65 737.74,505.47 747.15,516.87 750.77,521.26 
		754.08,525.27 756.47,528.15 762.29,535.2 763.15,537.07 768.18,547.98 761.04,565 742.03,572.02 720.93,556.43 713.87,551.2 
		690.38,533.84 669.44,528.99 	"/>
	<line class="st1" x1="719.97" y1="577.6" x2="710.89" y2="583.41"/>
	<polyline class="st1" points="528.95,117.96 527.61,107.31 530.12,103.64 532.59,101.33 	"/>
	<polyline class="st1" points="487.55,651.77 485.22,641.51 483,629.81 480.9,616.68 478.94,602.16 477.15,586.29 475.54,569.14 
		474.12,550.8 472.92,531.36 471.94,510.93 471.2,489.65 492.82,454.87 	"/>
	<polyline class="st1" points="401.68,187.03 405.02,177.45 406.72,176.48 421.54,168.09 422.58,166.87 424.9,159.44 434.56,154.64 
			"/>
	<polyline class="st1" points="510.02,121.6 507.97,111.69 510.73,108.01 513.45,105.67 	"/>
	<polyline class="st1" points="874.9,374.67 874.9,384.7 874.8,394.83 874.58,405 874.27,415.16 873.85,425.25 873.33,435.2 	"/>
	<polyline class="st1" points="366.18,579.94 366.05,579.52 363.32,570.46 360.61,559.97 348.16,549.12 347.72,548.66 337.05,537.8 
		336.6,537.26 327.3,526.09 326.84,525.44 318.91,514.06 318.44,513.24 313.33,505.33 311.89,501.8 309.95,493.93 	"/>
	<polyline class="st1" points="825.82,258.14 831.01,266.27 831.76,277.76 844.16,287.84 855.13,298.2 855.27,298.35 864.67,308.76 
		865.31,318.13 873.37,327.82 873.87,336.58 880.44,345.23 880.81,353.19 885.89,360.68 886.15,367.7 886.32,374.89 889.55,378.9 
		889.93,379.88 	"/>
	<polyline class="st1" points="700.08,475.83 699.8,485.44 706.77,496.21 721.3,518.68 	"/>
	<polyline class="st1" points="297.3,431.48 296.74,421.97 296.37,412.29 296.21,402.5 296.25,392.64 296.49,382.78 296.93,372.96 
		297.57,363.24 302.3,359.79 308.5,356.4 316.2,353.1 325.41,349.9 336.15,346.84 348.41,343.94 362.18,341.21 377.42,338.7 
		394.07,336.42 430.7,344.88 	"/>
	<polyline class="st1" points="668.74,132.38 668.28,141.86 667.79,152.82 667.28,165.25 666.75,179.12 666.2,194.38 665.63,210.99 
		665.06,228.87 664.47,247.91 663.88,268.03 663.3,289.08 662.71,310.93 662.14,333.43 661.58,356.41 661.04,379.7 660.52,403.13 
		660.03,426.5 659.57,449.66 659.14,472.41 654.73,476.69 652.42,478.94 652.35,479 649.86,481.42 638.56,488.22 633.33,491.37 
		622.22,493.91 621.89,493.98 611.33,496.4 605.72,490.84 596.17,481.96 595.99,481.79 588.99,475.12 588.71,474.85 587.35,473.56 
		572.35,473.3 563.24,473.15 555.73,465.5 555.64,465.41 539.34,448.82 539.26,448.74 539.11,448.59 535.38,444.65 523.17,431.8 
		522.95,431.57 515.88,424.12 511.02,416.84 499.42,399.44 496.53,387.65 494.85,380.79 493.66,375.96 472.1,352.8 473.14,330.06 
		474.42,307.8 475.93,286.18 477.64,265.35 479.56,245.45 481.65,226.61 483.9,208.93 486.28,192.5 488.79,177.39 491.39,163.67 
		494.07,151.38 496.81,140.54 499.58,131.16 502.38,123.23 510.02,121.6 522.52,118.92 528.95,117.96 543.1,115.85 548.07,115.42 
		560.29,114.37 560.49,114.13 565.48,108.08 566,107.46 586.8,106.93 607.68,107.7 628.51,109.79 649.18,113.16 669.58,117.82 
		689.58,123.71 709.08,130.81 711.23,131.75 727.98,139.08 728.08,139.13 746.17,148.44 746.81,154.72 750.59,156.93 764.39,165.01 
		764.56,165.12 781.05,176.25 781.25,176.4 796.71,188.37 796.93,188.56 811.3,201.28 812.46,207.92 812.68,208.12 825.97,221.23 
		827.13,228.47 810.88,246.78 	"/>
	<polyline class="st1" points="491.44,126.32 488.81,117.3 491.79,113.61 494.74,111.24 	"/>
	<line class="st1" x1="710.2" y1="559.83" x2="701.85" y2="563.81"/>
	<polyline class="st1" points="873.33,435.2 865.16,439.18 855.48,443.07 844.29,446.85 831.6,450.49 817.43,453.97 801.81,457.25 
		728.18,441.61 717.69,443.07 	"/>
	<polyline class="st1" points="840.7,258.51 842.53,267.23 842.69,267.41 853.52,279.27 854.38,288.42 854.52,288.6 863.94,299.89 
		864.67,308.76 864.81,308.94 872.77,319.46 873.37,327.82 873.49,328 879.97,337.56 880.44,345.23 880.54,345.41 885.56,353.87 
		885.89,360.68 885.98,360.86 886.79,362.5 887.3,363.51 889.57,368.1 889.8,374.59 892.47,376.06 	"/>
	<polyline class="st1" points="768.42,385.85 776.89,388.6 819.53,388.61 833.61,389.87 846.2,391.13 857.26,392.38 866.79,393.62 
		874.8,394.83 881.31,396.02 886.35,397.18 889.96,398.31 	"/>
	<polyline class="st1" points="714.01,473.22 713.71,482.12 713.28,494.11 728.21,519.47 742.94,556.55 	"/>
	<polyline class="st1" points="760.43,484.23 759.86,492.9 759.26,501.07 758.64,508.71 758,515.79 757.36,522.29 757.07,524.85 	
		"/>
	<polyline class="st1" points="293.07,400.89 293.1,392.32 293.31,383.73 293.7,375.19 294.25,366.73 294.98,358.4 295.87,350.24 
		296.28,342.57 297.3,336.11 298.07,330.45 298.08,330.42 299.7,324.26 300.97,320.13 304.81,310.83 305.21,309.86 305.39,309.81 
		305.99,309.63 308.95,308.76 309.92,307.47 310.34,306.92 312.26,304.39 312.42,304.18 312.71,303.79 315.79,299.72 316.62,298.83 
		316.95,298.49 324.07,290.88 326.45,288.78 333.79,282.3 337.7,279.41 339.82,277.84 344.96,274.04 357.18,266.73 357.57,266.15 	
		"/>
	<polyline class="st1" points="294.69,434.22 294.03,426.12 292.08,421.04 291.55,415.55 291.2,409.71 290.98,403.78 	"/>
	<polyline class="st1" points="296.93,342.3 298.13,334.6 301.98,326.4 303.52,317.94 305.21,309.86 	"/>
	<polyline class="st1" points="512.2,673.09 509.96,665.66 507.78,656.76 505.69,646.39 503.7,634.54 501.82,621.22 500.08,606.48 
		498.49,590.37 497.06,572.93 495.82,554.27 494.77,534.48 493.92,513.68 539.64,479.98 539.39,464.51 539.3,453.5 539.26,448.82 
		539.19,448.67 523.21,447.57 492.82,454.87 472.27,444.41 449.09,443.41 428.76,441.49 409.59,439.38 391.68,437.1 375.13,434.67 
		360.01,432.11 346.36,429.44 334.23,426.68 324.11,423.99 323.72,423.92 323.63,423.86 323.51,415.61 323.39,415.5 314.69,407.74 
		314.35,407.44 314.42,393.8 314.75,380.13 315.34,366.54 316.2,353.1 317.3,339.89 318.65,326.99 328.04,321.5 338.92,316.2 
		340.7,301.56 353.14,295.51 355.24,280.48 357.18,266.73 357.57,266.15 383.17,276.78 398.66,283.21 	"/>
	<polyline class="st1" points="359.59,583.19 356.54,576.1 353.6,568.04 350.81,559.04 348.16,549.12 345.69,538.31 334.67,527.67 
		334.27,527.21 325.04,516.68 324.63,516.13 316.8,505.41 316.39,504.73 309.95,493.93 	"/>
	<polyline class="st1" points="886.42,389.67 886.35,397.18 886.19,404.72 885.95,412.25 885.63,419.72 885.24,427.11 
		880.01,431.17 879.47,439.7 878.84,448.02 872.01,454.52 871.22,463.77 870.34,472.7 869.39,481.24 868.36,489.37 867.28,497.05 
		858.73,508.43 858.57,508.64 851.44,508.74 849.86,510.38 849.71,510.54 839.4,509.85 827.84,506.21 812.14,500.97 793.35,494.84 
		769.55,486.68 769.53,486.14 760.48,483.58 750.33,480.36 738.79,485.29 726.42,489.89 713.28,494.11 	"/>
	<polyline class="st1" points="291.52,384.72 291.84,377.45 292.32,370.25 292.94,363.15 293.66,356.33 293.91,354.35 
		295.24,349.83 299.41,344.31 304.37,338.44 310.77,332.65 312.24,321.25 320.24,314.48 322.05,302.42 331.65,294.81 333.79,282.3 	
		"/>
	<polyline class="st1" points="595.99,481.79 589.04,481.86 572.41,481.64 555.91,481.01 539.64,479.98 	"/>
	<polyline class="st1" points="294.69,434.22 292.7,427.72 292.13,420.81 291.71,413.75 291.2,409.71 	"/>
	<polyline class="st1" points="351.12,575.78 348.08,569.95 344.54,566.03 340.7,561.68 337.8,556.16 336.77,554.54 335.47,552.49 
		328.75,541.92 328.65,541.74 327.44,539.47 323.76,532.09 318.54,521.86 317.19,518.78 316.06,515.82 313.98,509.09 	"/>
	<polyline class="st1" points="638.56,488.22 638.51,494.7 638.43,508.67 629.25,537.19 634.73,577.17 634.78,594.68 634.88,610.87 
		635.05,625.66 635.27,639.01 635.54,650.89 635.86,661.27 636.23,670.16 636.64,677.57 637.08,683.52 637.56,688.05 638.06,691.18 
		638.59,692.98 	"/>
	<polyline class="st1" points="292.7,427.72 292.08,421.04 291.55,415.55 	"/>
	<polyline class="st1" points="534.43,682.99 532.41,677 530.45,669.54 528.54,660.58 526.71,650.13 524.98,638.17 523.35,624.72 
		521.84,609.82 520.47,593.52 519.25,575.88 518.19,556.98 517.31,536.93 539.64,479.98 	"/>
	<polyline class="st1" points="881.48,466.67 881.36,467.6 880.5,473.41 874.73,484.98 874.58,485.28 873.55,491.62 872.46,497.51 
		871.33,502.94 870.24,508.56 869.31,511.58 868.98,512.35 861.84,526.14 861.39,527.01 861.17,528.32 860.13,531.24 859.88,532.54 
		858.55,535.98 857.05,538.94 849.35,551.42 847.4,555.36 846.17,557.59 	"/>
	<polyline class="st1" points="313.29,282.13 315.58,276.48 318.46,270.93 319.79,268.75 322.32,262.5 324.93,256.88 326.1,254.88 
		331.9,244.72 334.04,240.86 336.09,237.32 339.05,232.68 344.23,225.12 346.63,221.62 	"/>
	<polyline class="st1" points="291.31,379.72 291.71,373.76 292.22,367.89 292.9,362.64 294.98,358.4 298.4,353.67 303.23,348.99 
		304.37,338.44 305.71,328.18 312.24,321.25 313.92,310.26 322.05,302.42 324.07,290.88 	"/>
	<polyline class="st1" points="415.39,155.87 418.9,151.06 435.2,141.03 438.63,137.35 438.77,137.28 447.18,132.48 455.38,128.13 
		458.95,125.88 	"/>
	<polyline class="st1" points="292.85,362.14 293.6,356.52 293.66,356.33 295.24,349.83 295.64,342.84 296.8,336.51 299.07,328.65 
		299.48,327.2 303.18,318.72 303.52,317.94 308.43,310.1 308.95,308.76 	"/>
	<polyline class="st1" points="605.72,491.06 605.74,496.66 611.38,559.77 611.57,578.73 611.86,596.43 612.22,612.78 
		612.66,627.71 613.16,641.18 613.73,653.16 614.36,663.62 615.04,672.57 615.77,680.02 616.53,685.99 617.33,690.52 618.15,693.65 
		619,695.43 	"/>
	<polyline class="st1" points="726.4,573.49 720.89,572.48 718.63,573.89 710.6,578.89 	"/>
	<polyline class="st1" points="343.68,566.38 340.7,561.68 339.17,559.25 334.03,551.11 331.49,547.09 328.85,542.13 328.75,541.92 
		326.12,536.02 325.2,534.3 323.76,532.09 320.98,527.3 318.54,521.86 316.2,515.79 	"/>
	<polyline class="st1" points="880.5,473.41 879.59,478.87 878.64,483.97 877.65,488.68 871.9,501.66 871.55,502.45 871.33,502.94 
		864.25,515.99 863.9,516.64 863.69,517.03 854.92,530.53 854.71,530.85 	"/>
	<polyline class="st1" points="339.71,450.2 333.93,449.22 317.49,447.9 298.69,445.67 	"/>
	<polyline class="st1" points="672.62,472.19 670.38,476.99 670.12,490.91 669.87,504.27 669.65,516.98 669.44,528.99 679.59,588.3 
		679.21,603.96 678.87,618.29 678.55,631.25 678.27,642.8 678.01,652.93 677.79,661.63 677.59,668.9 677.98,674.64 677.3,679.26 
		676.91,679.38 676.61,679.46 675.9,679.95 677.12,684.32 	"/>
	<polyline class="st1" points="292.22,367.89 292.9,362.64 293.7,356.19 294.61,349.41 296.93,342.3 300.61,335.2 301.98,326.4 
		307.24,318.27 308.43,310.1 308.95,308.76 	"/>
	<polyline class="st1" points="305.39,309.81 305.98,305.06 306.48,301.34 308.11,295.71 308.75,294.89 311.1,288.32 313.29,282.13 
		318.46,270.93 321.24,264.66 322.08,262.9 322.77,261.38 323.61,259.64 324.93,256.88 327.62,251.91 329.35,249.73 330.35,248.81 
		333.18,242.7 336.09,237.32 337.15,235.76 342.8,228.15 345.79,223.17 346.93,221.49 348.94,218.23 350.81,215.89 356.72,209 
		360.01,204.33 363.03,200.72 370.93,192.48 372.23,191.07 375.68,186.6 379.75,182.63 387.17,175.48 389.4,173.49 399.57,166.19 
		415.39,155.87 434.56,154.64 437.08,153.39 438.41,152.73 438.7,152.29 445.53,142.12 449,136.97 452.34,132.02 455.38,128.13 
		456.88,126.99 458.95,125.88 460.75,125.08 470.19,121.34 473.41,120.4 476.55,117.99 487.96,114.39 491.79,113.61 507.41,109 
		510.73,108.01 527.23,104.29 530.12,103.64 549.88,100.52 569.9,98.68 590.08,98.14 610.31,98.9 630.5,100.97 650.53,104.33 
		670.3,108.97 689.71,114.86 708.65,121.97 708.74,122.01 727.04,130.26 727.41,130.45 744.77,139.67 745.29,139.99 761.77,150.16 
		762.43,150.63 773.96,158.83 778.17,160.98 792.15,171.37 795.9,174.65 804.88,183.08 806.08,184.49 807.85,187 809.17,189.14 
		820.85,201.05 827.03,208.11 830.23,212.02 831.65,213.77 833.05,216.36 833.58,217.1 836.41,220.73 842.76,229.31 843.79,230.98 
		844.34,232.02 844.74,232.8 848.14,238.14 852.73,245.43 854.07,247.84 854.79,249.22 857.03,254.46 865.23,270.73 866.38,274.84 
		873.6,290.74 874.87,294.9 880.42,310.53 881.36,314.12 884.15,323.05 884.91,326.19 885.64,329.67 886.4,333.39 887.1,337.62 
		887.86,341.98 889.76,351.09 890.23,354.66 890.65,358.44 891.07,362.42 891.94,369.96 892.23,372.94 892.47,376.06 892.68,379.3 
		892.85,382.64 892.98,386.08 893.07,389.59 893.12,393.16 893.13,396.78 893.09,400.42 893.02,404.08 892.9,407.74 892.74,411.37 
		892.54,414.96 892.31,418.51 892.04,421.98 888.97,424.04 888.64,429.06 887.94,431.1 884.76,434.38 879.47,439.7 872.72,444.98 
		864.49,450.19 863.71,460.94 862.85,471.35 861.89,481.38 860.86,490.96 859.75,500.06 858.57,508.64 857.33,516.65 856.04,524.06 
		854.71,530.85 853.34,537 842.96,551.03 841.5,556.97 829.82,570.98 828.31,576.51 813.9,588.92 813.91,595.16 812.4,599.16 
		798.49,612.53 797.05,615.68 782.23,628.27 780.9,630.43 779.6,631.59 776.59,631.49 763.02,643.19 748.25,652.78 747.95,653.69 
		731.06,663.19 730.29,662.97 713.02,671.24 695.25,678.39 677.49,679.76 676.85,679.81 676.21,679.56 674.52,679.99 658.58,684.04 
		657.58,684.29 637.56,688.05 617.33,690.52 597,691.71 576.68,691.61 556.47,690.22 536.48,687.55 534.43,682.99 514.49,679.06 
		512.2,673.09 492.45,667.95 489.96,660.58 487.55,651.77 467.95,645.64 465.41,635.53 462.99,624.02 460.7,611.13 458.56,596.88 
		456.6,581.33 454.82,564.54 448.74,558.07 434.37,542.8 433.93,542.33 433.35,541.72 431.9,523.24 430.71,503.85 429.78,483.67 
		429.12,462.84 428.76,441.49 428.68,419.8 428.91,397.9 429.42,375.97 430.23,354.16 430.7,344.88 431,338.95 431.21,334.66 
		431.32,332.64 431.64,327.57 429.08,325.67 413.44,314.05 413.75,310.45 397.11,297.92 397.4,295.21 398.66,283.21 398.83,281.64 
		384.53,267.71 384.69,266.69 384.81,265.87 385.53,261.12 386.94,251.76 387.23,250.07 389.14,239.08 389.55,236.72 394.21,234.75 
		395.41,234.25 406.21,229.68 407.37,223.6 395.33,209.67 397.28,202.22 398.44,197.78 401.93,195.96 415.04,189.14 432.73,181.35 
		451.41,174.47 471,168.56 473.87,156.48 476.8,145.82 479.78,136.58 499.58,131.16 519.97,126.92 540.82,123.91 562.01,122.15 
		583.43,121.65 604.94,122.43 605.98,121.48 607.68,107.7 609.01,102.58 610.31,98.9 611.58,96.61 612.8,95.67 631.9,98.18 
		651.15,101.99 652.17,102.23 670.61,106.6 689.73,112.44 708.39,119.51 708.64,119.62 726.52,127.74 727.04,130.26 727.52,134.02 
		727.98,139.08 728.4,145.45 728.78,153.15 729.12,162.2 729.2,162.27 740.69,173.56 746.31,179.08 748.48,181.22 756.09,189.55 
		758.19,191.85 767.25,201.77 767.82,213.94 768.3,227.24 768.71,241.62 769.04,257 769.27,273.32 769.42,290.47 778,301.3 
		804.1,302.77 819.44,309.42 833.35,316.35 845.81,323.49 846.13,336.39 857.12,342.56 866.61,348.81 866.82,359.71 874.8,364.78 
		874.9,374.67 881.39,378.46 886.41,382.23 886.42,389.67 890.02,392.1 890.01,393.07 889.97,396.69 889.96,398.31 889.92,400.35 
		889.84,404.02 889.83,404.53 889.73,407.69 889.63,410.75 889.61,411.36 889.45,415.06 889.37,416.93 886.18,419.32 885.63,419.72 
		880.47,422.5 873.85,425.25 865.73,427.95 856.1,430.58 844.95,433.13 832.28,435.57 818.12,437.89 802.52,440.06 742.72,432.05 
		715.29,429.92 703.27,430.82 701.32,429.16 701.62,416.64 701.95,402.2 723.54,386.01 728.52,382.66 728.57,379.85 728.93,361.27 
		729.28,340.14 729.57,319.44 729.8,299.31 729.96,279.89 730.07,261.29 730.11,243.65 730.08,227.05 730,211.58 729.86,197.31 
		729.67,184.3 729.42,172.58 729.12,162.2 	"/>
	<polyline class="st1" points="414.24,639.07 410.59,635.89 404.28,631.33 399.4,627.52 396.01,624.22 392.66,619.84 391.57,618.88 
		382.72,611.7 381.44,610.97 378.77,607.53 	"/>
	<polyline class="st1" points="305.99,309.63 306.41,305.33 306.57,301.39 307.02,298.95 308.6,294.84 311.1,288.32 313.1,284.26 
		314.5,282.82 317.36,275.63 324.97,263.18 327.6,255.65 329.78,248.99 331.9,244.72 333.18,242.7 341.74,230.32 342.7,228.93 
		347.83,221.62 355.61,210.91 356.71,209.54 363.74,201.99 368.82,196.52 382.09,184.18 385.57,178.52 399.97,166.76 403.5,162.04 
		411.22,155.98 414.11,153.91 418.9,151.06 422.4,147.4 435.09,140.32 442.54,137.17 447.75,134.43 452.34,132.02 470.23,124.09 
		488.81,117.3 507.97,111.69 527.61,107.31 547.65,104.19 567.96,102.35 588.46,101.81 609.01,102.58 629.52,104.66 649.87,108.04 
		669.95,112.69 689.66,118.6 708.88,125.73 708.95,125.76 727.52,134.02 727.65,134.09 745.48,143.44 746.17,148.44 746.31,148.54 
		763.55,158.86 763.74,158.99 780.05,170.25 780.28,170.42 795.59,182.54 796.71,188.37 797.79,195.28 798.81,203.27 813.57,215.55 
		814.61,224.17 804.09,237.25 	"/>
	<polyline class="st1" points="473.11,138.86 470.44,136.32 470.23,124.09 473.41,120.4 487.96,114.39 493.27,111.79 494.74,111.24 
		512.21,106.05 513.45,105.67 531.54,101.57 532.59,101.33 551.19,98.37 552.07,98.23 554.22,97.27 560.17,96.72 572.14,95.99 
		573.64,95.46 593.2,94.93 	"/>
	<polyline class="st1" points="291.71,373.76 292.32,370.25 294.25,366.73 297.57,363.24 298.4,353.67 299.41,344.31 300.61,335.2 
		305.71,328.18 307.24,318.27 313.92,310.26 315.79,299.72 	"/>
	<polyline class="st1" points="721.34,569.04 720.89,572.48 720.43,575.43 719.97,577.6 739.73,607.13 755.55,630.77 748.25,652.78 
			"/>
	<polyline class="st1" points="578.15,694.74 576.68,691.61 575.23,687.07 573.83,681.07 572.46,673.58 571.15,664.58 
		569.91,654.06 568.74,642.01 567.65,628.45 566.66,613.42 565.78,596.95 565.02,579.12 564.38,560.02 571.43,502.6 572.41,481.64 
		572.35,473.3 	"/>
	<polyline class="st1" points="484.52,677.32 481.49,675.67 466.78,669.91 463.76,667.89 457.6,665.09 456.94,665.01 449.67,661.4 
		446.74,659.58 443.88,658.02 433.26,651.83 429.97,649.7 426.58,646.87 425.51,645.6 424.03,644.61 410.89,635.77 407.97,633.5 
		396.34,624.66 394.05,622.62 392.72,620.59 389.36,614.36 386.13,607.76 385.2,600.48 384.99,598.92 384.89,598.14 383.89,590.37 
		383.52,587.47 383.38,586.42 382.2,577.26 	"/>
	<polyline class="st1" points="892.04,421.98 891.73,425.37 890.68,432.4 890.59,434.87 890.19,437.47 889.52,441.6 889.54,441.64 
		888.97,445.16 888.88,445.72 888.65,447.18 888.26,449.6 887.64,453.27 886.98,456.71 886.3,459.91 885.6,462.85 883.55,470.48 
		882.73,474.03 882.36,475.57 881.76,477.95 877.83,489.44 876.62,492.99 875.67,496.7 875.19,498.25 874.49,500.35 869.16,512.44 
		867.76,516.29 866.53,519.72 865.28,522.62 860.09,532.69 858.91,534.77 858.41,535.76 857.05,538.94 855.69,541.52 849.51,551.96 
		848.9,552.83 847.62,554.84 846.17,557.59 837.85,569.72 837.04,570.54 835.51,573.12 825.58,585.16 823.97,587.88 823.37,588.76 
		822.24,590.2 816.9,595.87 811.48,601.61 810.9,602.24 799.43,613.76 796.39,617.12 795.62,617.86 782.72,628.9 780.93,630.45 	"/>
	<polyline class="st1" points="891.73,425.37 891.38,428.65 891,431.83 890.56,433.14 890.02,437.59 889.52,441.6 889.44,441.64 
		887.05,441.82 886.69,442.52 885.02,445.67 883.7,448.2 883.6,448.39 882.94,449.97 878.13,456.1 877.34,463.91 876.49,471.4 
		875.56,478.53 874.58,485.28 867.43,496.8 867.28,497.05 866.13,504.23 864.93,510.9 863.69,517.03 862.41,522.59 856.99,531.2 
		853.34,537 851.93,542.48 845.24,551.77 841.5,556.97 840.01,562.16 838.52,566.58 834,573.1 826.35,583.66 825.73,584.44 
		825.26,585.03 818.41,593.24 816.18,595.7 812.4,599.16 811.02,602.39 810.33,603.42 809.42,604.43 	"/>
	<polyline class="st1" points="893.02,404.08 889.83,404.27 886.19,404.72 881.12,404.88 874.58,405 866.55,405.1 856.99,405.16 
		845.9,405.18 833.29,405.16 819.18,405.1 803.61,405 776.89,388.6 766.97,387.25 761.85,385.41 723.54,386.01 720.3,387.76 
		702.02,399.08 697.09,402.14 696.52,402.49 695.35,403.2 	"/>
	<polyline class="st1" points="892.74,411.37 889.62,411.06 888.14,411.36 885.95,412.25 880.84,413.72 874.27,415.16 
		866.19,416.56 856.6,417.92 845.48,419.21 832.85,420.43 818.71,421.56 803.12,422.61 728.91,415.68 715.64,416.2 701.62,416.64 
		687.01,417.02 	"/>
	<polyline class="st1" points="776.28,585.39 778.88,586.89 798.49,612.53 	"/>
	<polyline class="st1" points="760.83,147.56 761.77,150.16 762.67,153.91 763.55,158.86 764.39,165.01 765.19,172.37 
		765.93,180.96 782.91,191.71 	"/>
	<polyline class="st1" points="744.03,137.11 744.77,139.67 745.48,143.44 745.66,143.55 762.67,153.91 763.24,154.31 771.91,160.4 
		779.01,165.39 780.05,170.25 781.05,176.25 782.01,183.4 782.91,191.71 798.81,203.27 798.9,213.1 814.61,224.17 	"/>
	<polyline class="st1" points="708.39,119.51 708.65,121.97 708.88,125.73 709.08,130.81 709.25,137.26 704.54,150.35 	"/>
	<polyline class="st1" points="689.73,112.44 689.71,114.86 689.66,118.6 689.58,123.71 689.47,130.22 689.33,138.15 689.16,147.52 
		688.95,158.33 688.71,170.57 688.44,184.2 688.14,199.2 687.81,215.5 687.45,233.03 687.06,251.69 686.64,271.39 686.21,291.99 
		685.75,313.37 685.27,335.38 684.79,357.85 684.29,380.62 675.16,402.89 675.92,416.63 675.98,417.77 676.1,419.84 676.34,424.11 
		682.78,449 682.28,471.25 	"/>
	<polyline class="st1" points="670.61,106.6 670.3,108.97 669.95,112.69 669.58,117.82 666.01,131.79 	"/>
	<polyline class="st1" points="660.24,688.69 658.24,689.83 639.15,693.49 638.59,692.98 619.43,695.67 600.5,697.07 599.31,696.61 
		598.15,694.84 597,691.71 595.88,687.18 594.79,681.19 593.74,673.71 592.75,664.72 591.81,654.21 590.94,642.18 590.14,628.64 
		589.43,613.63 588.8,597.19 588.28,579.38 587.86,560.3 589.17,496.93 589.04,481.86 588.71,474.85 	"/>
	<polyline class="st1" points="790.75,169.82 792,171.45 793.49,173.6 794.42,177.79 795.17,178.48 808.83,191.04 809.65,191.9 
		822.18,205.06 823.49,209.52 824.76,214.91 825.97,221.23 	"/>
	<polyline class="st1" points="622.22,493.91 622.22,495.91 629.25,537.19 611.38,559.77 587.86,560.3 564.38,560.02 541.1,558.9 
		518.19,556.98 495.82,554.27 474.12,550.8 453.26,546.6 434.2,542.16 416.31,553.12 398.72,546.39 398.34,545.92 392.53,538.61 
		385.21,529.43 380.48,523.48 374.71,516.07 372.18,512.84 369.79,509.4 363.78,500.74 362.4,484.39 361.31,467.43 360.51,449.96 
		360.01,432.11 359.82,413.98 359.95,395.7 360.39,377.4 361.13,359.19 362.18,341.21 363.53,323.58 365.23,306.43 	"/>
	<polyline class="st1" points="775.73,157.47 776.84,159.03 777.94,161.66 778.27,161.92 778.73,162.29 793.22,174.1 794.12,174.93 
		807.86,187.14 816.55,195.79 819.46,198.9 820.83,201.53 821.31,202.1 822.38,204.36 823.07,206.13 834.41,219.78 835.74,224.05 
		834.36,231.01 817.72,256.09 	"/>
	<polyline class="st1" points="651.74,100.98 651.66,102.11 650.53,104.33 649.87,108.04 649.18,113.16 647.14,127.72 
		646.96,137.38 646.18,148.46 645.38,161.03 644.58,175.07 643.77,190.54 642.96,207.39 642.16,225.53 641.37,244.87 640.6,265.31 
		639.86,286.7 639.15,308.92 638.47,331.8 637.84,355.18 637.26,378.87 636.73,402.7 636.25,426.49 635.84,450.04 635.49,473.19 
		633.33,491.37 	"/>
	<polyline class="st1" points="547.74,690.56 546.88,690.44 536.89,688.44 529.02,686.87 526.24,688.59 523.9,689.24 519.02,687.92 
		505.41,684.23 502.8,683.58 484.52,677.32 481.49,675.67 464.2,668.37 457.6,665.09 455.09,663.59 446.49,659.32 443.36,656.77 
		429.97,649.7 426.58,646.87 415.42,639.87 414.24,639.07 410.59,635.89 407.56,631.32 404.29,625.71 401.09,618.92 397.97,610.94 
		394.97,601.78 393.76,597.42 393.64,596.99 392.1,591.46 391.53,590.6 382.55,577.2 382.54,577.18 382.11,576.53 379.27,572.31 
		376.69,568.45 371.75,565.84 360.61,559.97 358.08,548.53 355.75,536.16 358.66,520.27 369.02,510.15 	"/>
	<polyline class="st1" points="710.6,559.6 710.2,559.83 709.77,566.15 710.1,571.21 710.38,575.46 710.6,578.89 710.77,581.54 
		710.89,583.41 711.41,591.42 711.58,593.95 	"/>
	<polyline class="st1" points="382.54,577.18 382.2,577.26 378.13,577.94 377.06,578.12 376.86,578.15 366.35,579.91 366.22,579.98 
		366.02,579.81 364.6,580.56 359.59,583.19 	"/>
	<polyline class="st1" points="483.08,662.12 482.89,662.4 460.74,664.63 456.05,662.32 443.32,656.03 440.18,651.5 439.37,651.04 
		423.43,641.9 422.53,641.3 407.56,631.32 406.58,630.56 392.72,620.59 382.72,611.7 378.63,607.74 373.06,602.4 374.12,599.64 
		375.6,597.53 374.86,580.97 378.13,577.94 	"/>
	<polyline class="st1" points="323.68,423.95 323.34,423.91 296.74,421.97 293.54,417.84 291.71,413.75 291.44,406.57 
		290.98,403.78 290.87,397.79 	"/>
	<polyline class="st1" points="721.15,568.88 716.26,571.87 710.38,575.46 	"/>
	<polyline class="st1" points="782.23,628.27 740.67,592.74 720.43,575.43 	"/>
	<polyline class="st1" points="720.43,575.43 718.72,576.51 710.77,581.54 	"/>
	<polyline class="st1" points="780.9,630.43 740.5,595.4 719.97,577.6 	"/>
	<polyline class="st1" points="782.65,497.39 775.52,499.08 768.37,500.79 758.7,508.66 758.64,508.71 751.5,513.78 	"/>
	<polyline class="st1" points="669.44,528.99 674.34,540 700.59,599.02 700.02,613.04 699.46,625.72 698.92,637.05 698.41,647 
		697.92,655.56 697.45,662.74 697.01,668.57 	"/>
	<polyline class="st1" points="762.29,535.2 763.56,537.28 769.51,544.83 773.61,550.29 785.88,566.65 	"/>
	<polyline class="st1" points="711.41,591.42 720.55,606.99 747.95,653.69 	"/>
	<polyline class="st1" points="773.61,550.29 787.59,563.7 813.9,588.92 	"/>
	<polyline class="st1" points="753.13,589.88 753.87,590.87 755.62,593.17 772.87,615.92 782.23,628.27 	"/>
	<polyline class="st1" points="348.42,221.87 353.46,215.65 356.72,209 360.01,204.33 362.7,201.41 	"/>
	<polyline class="st1" points="703.27,430.82 715,440.78 717.69,443.07 718.53,443.78 721.69,455.38 724.89,467.06 	"/>
	<polyline class="st1" points="676.1,419.84 679.96,423.58 688.58,431.92 705.29,448.09 704.73,469.72 	"/>
	<polyline class="st1" points="798.49,612.53 774.95,597.26 768.08,592.8 	"/>
	<polyline class="st1" points="775.34,593.79 768.08,592.8 758.87,591.55 748.39,583.64 748.24,583.53 	"/>
	<polyline class="st1" points="776.89,388.6 783.73,374.76 819.76,372.2 833.81,374.64 846.37,377.13 857.4,379.65 866.91,382.18 
		874.9,384.7 881.4,387.2 886.42,389.67 	"/>
	<polyline class="st1" points="346.03,460.13 344.68,460.03 308.64,461.37 307.28,460.38 305.94,459.11 304.63,457.55 
		303.35,455.72 302.11,453.6 300.92,451.22 299.77,448.57 298.69,445.67 297.66,442.53 297.54,434.27 	"/>
	<polyline class="st1" points="813.91,595.16 808.22,593.82 778.88,586.89 776.43,584.04 	"/>
	<polyline class="st1" points="330.18,434.79 320.57,434.64 299.93,434.31 297.96,434.25 297.54,434.25 294.69,434.22 	"/>
	<polyline class="st1" points="785.88,566.65 783.56,570.65 776.58,582.68 776.43,584.04 776.28,585.39 775.34,593.79 	"/>
	<polyline class="st1" points="344.57,469.18 311.38,462.35 310.02,462.07 308.64,461.37 	"/>
	<polyline class="st1" points="335.45,443.51 334.76,443.41 301.32,438.5 297.66,442.53 	"/>
	<polyline class="st1" points="857.33,516.65 840.93,512.43 837.71,511.22 831.27,509.44 825.9,509.12 806.2,503.78 783.9,497.72 
		782.65,497.39 772.55,494.65 769,493.68 759.26,501.07 748.64,508.09 	"/>
	<polyline class="st1" points="846.81,239.15 823.4,256.83 821.03,258.62 	"/>
	<polyline class="st1" points="718.34,638.04 730.82,662.71 731.06,663.19 	"/>
	<polyline class="st1" points="344.68,460.03 334.86,459.28 307.28,460.38 	"/>
	<polyline class="st1" points="345.58,459.41 335.52,459.25 333.42,459.17 330.14,456.71 323.59,454.96 299.77,448.57 	"/>
	<polyline class="st1" points="857.33,516.65 840.93,512.43 837.02,511.78 825.9,509.12 	"/>
	<polyline class="st1" points="682.28,471.25 672.73,471.96 663.4,473.09 654.71,478.74 654.51,493.03 654.34,506.72 654.21,519.75 
		657.59,574.71 657.4,591.97 657.26,607.92 657.17,622.51 657.11,635.69 657.1,647.43 657.12,657.7 657.19,666.51 657.29,673.86 
		657.42,679.78 658.08,684.16 657.78,687.44 658,689.27 658.24,689.83 	"/>
	<polyline class="st1" points="563.24,473.15 559.89,465.65 555.62,456.08 553.79,452 539.34,448.82 	"/>
	<polyline class="st1" points="431.64,327.57 432.68,311.57 434.3,291.09 436.16,271.34 438.26,252.45 440.56,234.54 443.04,217.71 
		445.7,202.04 448.5,187.61 451.41,174.47 454.43,162.66 457.52,152.21 476.8,145.82 496.81,140.54 517.42,136.41 538.54,133.48 
		560.02,131.77 581.73,131.3 603.55,132.09 625.34,134.12 646.96,137.38 668.28,141.86 689.16,147.52 691.22,148.21 703.8,152.42 
		709.48,154.32 720.18,158.61 728.78,153.15 728.87,153.19 747.42,162.27 765.19,172.37 769.86,175.44 782.01,183.4 786.51,186.79 
		797.79,195.28 798.75,196.1 812.46,207.92 813.57,215.55 818.09,219.85 827.13,228.47 	"/>
	<polyline class="st1" points="717.46,648.35 710.54,650.9 697.92,655.56 677.79,661.63 657.19,666.51 636.23,670.16 615.04,672.57 
		593.74,673.71 572.46,673.58 551.32,672.19 530.45,669.54 509.96,665.66 489.96,660.58 486.2,659.37 470.58,654.35 467.03,651.72 
		463.56,652.43 454.8,654.21 437.08,645.7 434.05,638.61 431.1,630.21 428.25,620.5 425.53,609.5 422.95,597.22 420.54,583.69 
		418.32,568.97 416.31,553.12 414.52,536.2 412.99,518.33 411.71,499.58 410.71,480.09 410,459.98 409.59,439.38 409.48,418.45 
		409.67,397.33 410.17,376.18 410.97,355.15 	"/>
	<polyline class="st1" points="413.75,310.45 415.09,294.28 417,275.2 419.15,256.95 421.51,239.62 424.07,223.32 426.81,208.13 
		429.7,194.12 448.5,187.61 468.23,182.01 488.79,177.39 510.05,173.79 531.89,171.25 554.16,169.8 576.72,169.45 599.41,170.22 
		622.08,172.1 644.58,175.07 666.75,179.12 688.44,184.2 709.53,190.28 729.86,197.31 749.33,205.22 767.82,213.94 777.97,219.06 
		780.95,220.87 785.22,223.42 785.84,236.15 802.19,245.67 802.82,258.71 817.96,268.03 831.76,277.76 832.4,289.98 832.93,302.87 
		833.35,316.35 833.65,330.35 833.83,344.79 833.88,359.59 833.81,374.64 833.61,389.87 833.29,405.16 832.85,420.43 832.28,435.57 
		831.6,450.49 830.81,465.1 829.91,479.32 828.92,493.04 827.85,506.02 827.84,506.21 	"/>
	<polyline class="st1" points="701.03,661.38 700.87,661.68 697.08,668.44 697.01,668.57 692.23,670.08 679.55,674.11 
		678.55,674.43 677.43,674.78 676.15,675.1 674.66,675.47 657.42,679.78 637.08,683.52 616.53,685.99 595.88,687.18 575.23,687.07 
		554.72,685.67 534.43,682.99 	"/>
	<polyline class="st1" points="468.32,651.46 462.41,643.91 461.98,643.36 	"/>
	<polyline class="st1" points="398.83,281.64 399.04,279.6 401.21,262.05 403.61,245.38 406.21,229.68 	"/>
	<polyline class="st1" points="726.52,127.74 726.73,127.85 726.98,127.99 744.03,137.11 744.68,137.51 760.83,147.56 761.2,147.82 
		762.14,148.49 775.22,157.86 776.95,158.79 782.84,163.32 790.75,169.82 792.15,171.37 793.49,173.6 806.22,184.76 807.85,187 
		818.06,197.16 819.46,198.9 820.16,199.75 821.22,201.52 822.38,204.36 833.05,216.36 834.41,219.78 836.24,221.56 844.14,231.82 
		845.49,235.1 847.22,238.84 855.37,250.95 857.03,254.46 862.8,264.34 863.94,266.95 864.38,267.89 864.51,268.17 867.28,274.39 
		867.45,274.82 871.45,283.86 872.32,286.25 872.71,287.41 873.6,290.74 874.86,294.51 878.59,303.57 879.52,306.83 880.42,310.53 
		881.33,314.28 880.4,319.62 886.32,333.49 886.57,334.71 887.21,337.61 887.84,342.04 890.23,354.66 	"/>
	<polyline class="st1" points="677.12,684.32 660.24,688.69 658,689.27 638.87,693.24 619.87,695.91 619,695.43 599.91,696.84 
		581.12,696.98 579.63,696.52 578.15,694.74 558.25,693.36 556.47,690.22 554.72,685.67 553,679.67 551.32,672.19 549.71,663.2 
		548.16,652.69 546.7,640.67 545.34,627.14 544.09,612.14 542.95,595.72 541.96,577.95 541.1,558.9 540.41,538.69 555.91,481.01 
		555.73,465.5 	"/>
	<polyline class="st1" points="708.43,476.39 700.14,473.9 689.59,470.75 	"/>
	<polyline class="st1" points="457.75,660.08 448.4,655.52 440.18,651.5 437.08,645.7 425.32,639.06 420.22,636.18 417.08,629.22 
		416.46,628.82 401.09,618.92 400.43,618.42 386.13,607.76 	"/>
	<polyline class="st1" points="731.06,663.19 730.51,662.86 716.82,654.66 	"/>
	<polyline class="st1" points="836.12,222.14 845.49,235.1 847.86,238.36 854.07,247.84 855.37,250.95 857.18,254.35 	"/>
	<polyline class="st1" points="313.09,486.3 316.8,484.47 324.6,481.31 326.33,480.56 329.48,479.04 330.07,478.78 348.21,470.74 	
		"/>
	<polyline class="st1" points="313.09,486.3 316.8,484.47 323.94,480.97 326.33,480.56 331.04,478.68 348.26,471.36 	"/>
	<polyline class="st1" points="833.49,572.84 827.15,580.74 826.78,581.19 825.52,585.36 823.97,587.88 822.24,590.2 	"/>
	<polyline class="st1" points="407.37,223.6 409,215.03 426.81,208.13 445.7,202.04 465.56,196.81 486.28,192.5 507.74,189.14 
		529.8,186.78 552.31,185.45 575.11,185.15 598.07,185.91 621.01,187.71 643.77,190.54 666.2,194.38 688.14,199.2 709.46,204.95 
		730,211.58 749.66,219.03 768.3,227.24 785.84,236.15 	"/>
	<polyline class="st1" points="372.55,601.88 374.19,599.72 375.6,597.69 383.38,586.42 	"/>
	<polyline class="st1" points="760.32,630.93 762.69,641.7 763.02,643.19 	"/>
	<polyline class="st1" points="755.55,630.77 762.3,641.99 763.02,643.19 	"/>
	<polyline class="st1" points="776.59,631.49 776.51,631.48 760.32,630.93 755.55,630.77 	"/>
	<polyline class="st1" points="363.32,570.46 362.83,570.01 350.81,559.04 350.31,558.51 339.6,547.12 339.09,546.48 329.72,534.77 
		329.19,533.99 321.18,522.07 318.91,514.06 316.8,505.41 314.85,496.14 	"/>
	<polyline class="st1" points="366.35,579.91 366.18,579.94 365.85,579.63 362.4,576.36 356.54,576.1 355.88,575.35 354.8,574.14 
		345.13,563.21 342.3,555.6 339.6,547.12 337.05,537.8 334.67,527.67 332.48,516.77 330.49,505.15 	"/>
	<polyline class="st1" points="663.4,473.09 654.71,478.43 654.13,478.79 654.1,478.81 649.86,481.42 	"/>
	<polyline class="st1" points="886.3,459.91 883.6,470.59 882.73,474.03 881.76,477.95 880.86,481.25 880.62,481.97 876.83,492.76 
		876.07,494.84 875.57,496.88 874.49,500.35 873.39,503.37 872.38,505.78 868.35,515.14 867.8,516.43 866.53,519.72 859.97,532.11 
		851.35,545.89 850.85,546.72 850.62,547.94 849.5,550.68 849.07,551.4 839.47,565.21 838.91,566.01 838.71,567.03 837.53,569.48 
		837.04,570.54 835.51,573.12 	"/>
	<polyline class="st1" points="323.51,415.61 323.42,409.1 323.5,394.24 323.86,379.35 324.49,364.54 325.41,349.9 326.59,335.53 
		328.04,321.5 329.73,307.9 331.65,294.81 342.72,287.48 344.96,274.04 	"/>
	<polyline class="st1" points="856.04,524.06 831.35,516.4 803.59,507.79 781.21,500.85 779.88,500.44 767.8,507.35 767.73,507.39 
		762.13,512.23 758,515.79 754.03,518.8 	"/>
	<polyline class="st1" points="308.48,294.75 310.36,289.82 311.84,285.94 313.62,282.34 317.36,275.63 319.79,268.75 
		324.24,261.29 327.6,255.65 331.57,250.11 336.74,242.89 347.2,230.55 350.29,222.66 353.46,215.65 365.46,202.94 368.82,196.52 
		372.23,191.07 380.97,182.85 385.57,178.52 389.08,173.92 392.59,170.35 397.22,166.53 404.88,160.2 407.03,158.42 410.37,156.03 
		410.55,155.88 411.22,155.98 414.11,153.91 420.64,148.67 422.4,147.4 425.88,144.88 434.51,139.53 439.05,136.91 442.04,134.86 
		447.18,132.48 454.35,129.02 455.66,128.33 470.19,121.34 474.81,118.77 476.55,117.99 	"/>
	<polyline class="st1" points="372.18,512.84 369.02,510.15 358.87,501.53 352.3,495.95 350.37,494.32 350.12,494.1 	"/>
	<polyline class="st1" points="879.59,478.87 873.71,491.27 873.55,491.62 866.3,503.95 866.13,504.23 863.8,507.51 863.05,508.57 
		857.5,516.41 857.33,516.65 	"/>
	<polyline class="st1" points="725.94,500.81 732.57,508.21 742.98,519.84 754.44,532.64 767.63,547.37 768.18,547.98 	"/>
	<polyline class="st1" points="470.58,654.35 467.68,651.59 456.36,643.81 449.1,638.44 448.94,637.85 446.39,628.51 428.25,620.5 
		411.08,611.57 394.97,601.78 	"/>
	<polyline class="st1" points="881.36,467.6 875.7,478.28 875.56,478.53 868.51,489.16 868.36,489.37 859.9,499.88 859.75,500.06 
		851.44,508.74 	"/>
	<polyline class="st1" points="684.04,536.27 686.88,547.03 690.09,559.2 694.18,567.48 701.29,581.87 712.23,604.02 719.71,619.16 
		718.94,630.21 718.34,638.04 718.19,639.95 717.46,648.35 716.78,655.04 707.76,658.83 701.03,661.38 697.45,662.74 677.59,668.9 
		657.29,673.86 636.64,677.57 615.77,680.02 594.79,681.19 573.83,681.07 553,679.67 532.41,677 512.2,673.09 	"/>
	<polyline class="st1" points="326.73,478.88 323.98,479.32 322.39,479.59 321.46,479.69 317.18,480.14 315.47,480.07 	"/>
	<polyline class="st1" points="882.91,455.06 877.46,463.73 877.34,463.91 870.34,472.7 861.89,481.38 851.99,489.89 840.63,498.19 
		839.49,509.77 	"/>
	<polyline class="st1" points="326.16,479.19 323.76,480.05 321.26,479.59 315.47,480.07 	"/>
	<polyline class="st1" points="560.29,114.37 564.01,114.05 585.12,113.53 605.98,121.48 626.42,124.49 626.65,124.53 
		646.55,127.63 647.72,127.81 666.01,131.79 668.74,132.38 684.51,136.8 689.33,138.15 704.54,150.35 709.48,154.32 709.54,164.93 
		709.55,176.93 709.53,190.28 709.46,204.95 709.34,220.87 709.18,237.97 708.97,256.17 708.72,275.35 708.42,295.42 708.09,316.22 
		707.71,337.62 707.29,359.47 706.83,381.61 702.23,390.27 695.64,402.66 675.16,402.89 660.52,403.13 636.73,402.7 612.58,402.25 
		588.26,401.76 563.97,401.25 539.89,400.72 516.22,400.17 499.42,399.44 471.9,399.02 449.31,398.47 428.91,397.9 409.67,397.33 
		391.71,396.78 375.11,396.23 359.95,395.7 346.27,395.19 334.12,394.7 323.5,394.24 314.42,393.8 306.87,393.38 300.82,393 
		296.25,392.64 293.1,392.32 291.34,392.02 290.9,391.76 	"/>
	<polyline class="st1" points="891.38,428.65 890.61,433.18 890,437.32 889.55,440.64 889.44,441.64 889.35,442.56 889.08,444.27 
		888.84,445.72 888.26,449.6 	"/>
	<polyline class="st1" points="737.74,505.47 746.32,517.46 752.77,526.47 758.77,534.84 767.46,546.97 	"/>
	<polyline class="st1" points="297.8,335.7 298.13,334.6 299.48,327.2 300.14,323.44 300.41,322.13 300.97,320.13 	"/>
	<polyline class="st1" points="359.59,583.19 358.78,582.27 353.3,575.95 352.58,575.13 352.52,575.06 348.08,569.95 345.13,563.21 
		344.43,562.28 334.99,549.83 332.29,542.69 329.72,534.77 327.3,526.09 325.04,516.68 322.96,506.58 321.07,495.83 	"/>
	<polyline class="st1" points="351.12,575.78 349.93,574.17 344.54,566.03 337.8,556.16 334.99,549.83 334.21,548.62 326.12,536.02 
		323.59,529.39 321.18,522.07 320.62,521.06 313.98,509.09 313.06,505.86 	"/>
	<polyline class="st1" points="887.64,453.27 882.14,462.12 880.37,464.61 876.49,471.4 869.52,481.06 869.39,481.24 861,490.8 
		860.86,490.96 850.89,500.49 849.71,510.54 	"/>
	<polyline class="st1" points="888.64,429.06 887.94,431.1 888.18,434.94 884.21,441.48 878.84,448.02 878.13,456.1 871.22,463.77 
		862.85,471.35 853.01,478.79 841.69,486.04 840.63,498.19 828.04,506.08 	"/>
	<polyline class="st1" points="516.82,683.63 516.12,683.31 505.43,678.55 504.36,678.08 500.29,676.26 495,673.91 492.45,667.95 
		489.13,663.39 486.43,659.68 486.2,659.37 	"/>
	<polyline class="st1" points="697.58,550.57 699.85,557.6 701.85,563.81 708.54,584.54 709.97,588.95 711.58,593.95 719.71,619.16 
			"/>
	<polyline class="st1" points="889.37,416.93 889.26,418.91 889.03,423.04 886.66,425.59 885.24,427.11 884.76,434.38 
		884.21,441.48 883.6,448.39 882.94,449.97 882.91,455.06 882.17,461.48 881.96,463.05 881.48,466.67 883.47,470.35 882.99,471.71 
		879.89,482.25 879.94,484.2 877.93,488.99 876.83,492.76 876.17,495.21 875.67,496.7 870.24,508.56 869.16,512.44 868.35,515.14 
		867.8,516.43 861.17,528.32 859.76,531.97 858.41,535.76 850.62,547.94 849.35,551.42 848.9,552.83 847.4,555.36 838.71,567.03 
		837.01,570.23 835.02,573.24 834.02,575.25 825.84,585.5 824.4,587.2 823.74,588.03 818.41,593.24 816.38,595.74 811.02,602.39 
		809.42,604.43 799.43,613.76 797.05,615.68 795.62,617.86 794.23,619.1 782.72,628.9 780.92,630.44 780.84,630.53 779.6,631.59 	
		"/>
	<polyline class="st1" points="611.33,496.4 605.72,490.84 597.14,481.78 589.17,473.56 	"/>
	<polyline class="st1" points="399.4,627.52 396.34,624.66 394.05,622.62 385.48,615.1 382.11,611.83 	"/>
	<polyline class="st1" points="449.67,661.4 446.74,659.58 445,658.45 443.36,656.77 442.28,655.43 426.68,646.39 423.43,641.9 
		420.22,636.18 419.49,635.7 404.29,625.71 403.51,625.11 389.36,614.36 	"/>
	<polyline class="st1" points="466.78,669.91 464.2,668.37 460.74,664.63 457.75,660.08 454.8,654.21 456.36,643.81 	"/>
	<polyline class="st1" points="822.24,259.55 831.01,266.27 843.39,277.19 843.54,277.34 854.38,288.42 855.13,298.2 855.79,308.55 
		865.31,318.13 865.85,327.96 873.87,336.58 874.28,345.69 880.81,353.19 881.1,361.42 886.15,367.7 889.78,373.92 889.82,375.26 
		889.55,378.9 889.93,379.88 889.96,382.47 890.01,385.97 890.05,385.98 892.98,386.08 	"/>
	<polyline class="st1" points="339.94,450.57 333.93,449.22 297.66,442.53 	"/>
	<polyline class="st1" points="724.89,467.06 724.73,467.15 714.01,473.22 708.43,476.39 700.08,475.83 685.57,474.87 
		670.38,476.99 654.71,478.74 649.86,481.42 	"/>
	<polyline class="st1" points="890.35,432.98 888.45,438.42 887.75,440.4 887.66,440.67 887.05,441.82 	"/>
	<polyline class="st1" points="678.55,674.43 677.98,674.64 676.56,679.47 675.88,679.88 676.33,680.15 677.12,684.32 	"/>
</g>
</svg>
